<svg xmlns="http://www.w3.org/2000/svg" xmlns:xlink="http://www.w3.org/1999/xlink" id="&#x421;&#x43B;&#x43E;&#x439;_1" x="0px" y="0px" viewBox="0 0 1072.7 250.7" style="enable-background:new 0 0 1072.7 250.7;" xml:space="preserve">
<style type="text/css">
	.st0{enable-background:new    ;}
	.st1{fill:#FFFFFF;}
	.st2{fill:#FFFFFF;stroke:#FFFFFF;stroke-width:8;stroke-miterlimit:10;}
	.st3{fill:#FFFFFF;stroke:#FFFFFF;stroke-width:8;stroke-miterlimit:10.0001;}
	.st4{fill:#FFFFFF;stroke:#FFFFFF;stroke-width:8.0001;stroke-miterlimit:10.0001;}
</style>
<g class="st0">
	<path class="st1" d="M411.1,114.4c0,4.4-1,8.6-3.1,12.4c-2,3.9-4.8,7.1-8.3,9.6c-3.5,2.6-7.5,4.1-12.1,4.7v0.7   c9.1,1.9,16.3,5.7,21.5,11.6c5.3,5.8,7.9,13,7.9,21.5c0,6.5-1.7,12.6-5.2,18.1c-3.4,5.5-7.8,9.7-13,12.3c-3.3,1.6-7.3,2.8-12.1,3.6   c-4.8,0.8-11.5,1.1-20.1,1.1H309V200l14.7-3.7V97.9L309,94.2V84.1h64.1c12.3,0,21.7,3,28.4,8.9c3,2.8,5.4,6.1,7.1,9.8   C410.2,106.6,411.1,110.4,411.1,114.4z M346.5,96.9V138h16.6c8.2,0,14.2-2,18-6.1c1.8-1.6,3.3-3.7,4.6-6.2c1.3-2.5,1.9-5.4,1.9-8.7   c0-3.3-0.6-6.2-1.9-8.8c-1.3-2.6-2.8-4.6-4.6-6.1c-3.5-3.5-9.3-5.3-17.3-5.3H346.5z M363.6,150.8h-17.2V197h14   c5.4,0,9.7-0.3,13-0.9c3.3-0.6,6-1.5,8.2-2.8c3.2-1.6,5.7-4.2,7.7-7.8c2-3.6,3-7.7,3-12.3c0-4.1-0.8-7.5-2.3-10.3   c-1.5-2.8-3.4-5.1-5.8-7c-2.1-1.6-4.8-2.9-8.1-3.8C373,151.2,368.8,150.8,363.6,150.8z"></path>
</g>
<g class="st0">
	<path class="st1" d="M506.4,165.3h-61.1c0,7.9,1.2,14.5,3.5,19.8c1.9,4,4.4,7,7.5,9.2c3.2,2.2,7.1,3.2,11.7,3.2   c5.1,0,10.2-1.2,15.3-3.5c5.1-2.3,9.4-5.8,13-10.5l9.5,7.4c-4.1,5.8-9.6,10.8-16.5,14.9c-6.9,4.1-15.5,6.1-25.7,6.1   c-8.5,0-15.9-1.7-22.1-5.2c-6.2-3.4-10.9-8.5-14.2-15.1c-1.8-3.6-3-7.6-3.9-12.1c-0.8-4.4-1.2-9.2-1.2-14.4   c0-16.3,3.8-29,11.3-37.9c7.5-8.9,18.2-13.4,32-13.4c12.7,0,22.8,3.7,30.2,11.1c7.4,7.4,11.1,17.7,11.1,30.7c0,1.3,0,2.5-0.1,3.8   C506.8,160.7,506.6,162.7,506.4,165.3z M465.2,125.9c-12,0-18.6,9.4-19.8,28.2H484v-4.6c0-7.6-1.7-13.4-5-17.5   C475.6,128,471.1,125.9,465.2,125.9z"></path>
</g>
<g class="st0">
	<path class="st1" d="M569.5,128.4c-1.3,0-2.7,0.8-4.4,2.4c-1.6,1.6-3.1,3.4-4.5,5.5c-1.3,2.1-2.3,4-2.9,5.6   c-1.4,4-2.6,8.1-3.7,12.3c-1.1,4.2-1.6,9.3-1.6,15.4V197l18.9,3.3v9.8h-54.6v-9.8l13.5-3.3v-70.9l-13.5-3.3v-7.2h30.5l3.9,23.1h0.7   c2.7-7.9,6.3-14.1,10.9-18.4c4.6-4.3,9.6-6.5,15.1-6.5c4.6,0,8.3,1.4,11.4,4.3c3,2.9,4.6,6.7,4.6,11.5c0,3.5-1.1,6.7-3.2,9.5   c-2.1,2.9-5.1,4.3-8.9,4.3c-4.7,0-8-1.1-10-3.2c-2-2.2-3-4.5-3-7.1c0-0.8,0-1.4,0.1-1.8C568.8,130.9,569.1,129.9,569.5,128.4z"></path>
</g>
<g class="st0">
	<path class="st1" d="M598.6,127v-8.9l17.2-2.5l2.1-21.7l20-2.8v24.5h22.4V127h-22.4v57.3c0,4,0.1,6.7,0.2,8.1   c0.1,1.5,0.4,2.7,0.7,3.6c0.4,0.7,1,1.2,1.9,1.6c0.9,0.4,2.5,0.5,4.6,0.5h12.3v7.7c-6.8,2.1-12.8,3.7-18,4.6   c-5.2,1-9.3,1.5-12.3,1.5c-5.3,0-8.6-2.2-10.2-6.5c-0.5-1.4-0.8-3.2-1.1-5.4c-0.2-2.2-0.4-5.5-0.4-9.8V127H598.6z"></path>
</g>
<g class="st0">
	<path class="st1" d="M739.1,197v-33.8c0-7.6-0.2-13.2-0.6-16.9c-0.4-3.7-1.1-6.6-2.2-8.8c-2.8-5.7-7.9-8.6-15.4-8.6   c-3.3,0-6.4,0.8-9.5,2.5c-3,1.6-5.4,4-7.2,7c-0.9,1.5-1.8,3.7-2.5,6.4c-0.7,2.7-1.1,6.1-1.1,10.1V197l11.7,3.3v9.8h-47.5v-9.8   l13.5-3.3V86.7l-13.5-3.3v-9.8h35.7v58.5c3-5.6,7-10,12-13.3c5-3.3,10.4-4.9,16.4-4.9c5,0,9.3,0.6,12.7,1.8c3.4,1.2,6.5,3.2,9,5.9   c3.6,3.7,6.3,8.7,8,15c1.7,6.2,2.5,14.4,2.5,24.4V197l13.5,3.3v9.8h-47.5v-9.8L739.1,197z"></path>
</g>
<g class="st0">
	<path class="st1" d="M779.9,189.5c0-9.7,4.4-17.2,13.3-22.5c8.9-5.3,22.8-9.4,41.9-12.3c-0.5-5.8-1.1-10.3-1.9-13.5   c-0.8-3.2-1.9-5.8-3.2-8.1c-1.5-2.7-3.4-4.8-5.6-6.5c-2.2-1.6-5-2.5-8.4-2.5c-2.5,0-4.7,0.5-6.7,1.4c-2,0.9-3.4,2.2-4.1,3.9   c1.6,0.8,2.8,2.1,3.4,3.9c0.6,1.8,1,3.3,1,4.6c0,2.9-1.3,5.5-3.9,7.8c-2.6,2.3-5.7,3.4-9.3,3.4c-3.6,0-6.5-1.2-8.6-3.6   c-2.1-2.4-3.2-5.4-3.2-9c0-4.8,1.7-8.9,5.1-12.3c3.4-3.4,7.7-6,13-7.7c5.3-1.8,10.6-2.6,15.9-2.6c5.5,0,10.4,0.8,14.8,2.4   c4.4,1.6,7.9,3.5,10.6,5.9c9.2,8.2,13.8,21.1,13.8,38.9v22.8c0,5.7,0.4,9.7,1.1,11.9c0.8,2.2,2.4,3.3,5,3.3h7.9v7.9   c-10.7,3.4-18.9,5.1-24.3,5.1c-3.9,0-6.4-1.3-7.7-3.9c-1.3-2.6-1.9-7.6-1.9-15.2h-0.7c-3.6,6-8.4,10.6-14.4,14   c-6,3.4-12.4,5.1-19.3,5.1c-7.4,0-13.1-2-17.3-6C782,202,779.9,196.5,779.9,189.5z M814.2,199.1c2.5,0,5.2-0.8,8.1-2.5   c3-1.6,5.6-3.9,7.8-6.8c1.3-1.6,2.5-4,3.7-7c1.2-3,1.8-6.7,1.8-10.9c0-1.4-0.1-3-0.2-4.7c-0.1-1.8-0.3-3.4-0.5-4.9   c-8.1,1.8-14.4,3.6-19,5.6c-4.6,2-7.9,4.4-9.8,7.1c-1.9,2.7-2.9,6.1-2.9,10.1c0,5,1.2,8.6,3.5,10.8   C809.1,198.1,811.6,199.1,814.2,199.1z"></path>
</g>
<g class="st0">
	<path class="st1" d="M878.7,201.1c0-4.4,1.2-7.9,3.7-10.4c2.5-2.5,5.8-3.8,10-3.8c4.2,0,7.6,1.3,10.1,3.9c2.5,2.6,3.8,6,3.8,10.2   c0,4.2-1.2,7.5-3.7,10c-2.5,2.5-5.9,3.7-10.3,3.7c-4.2,0-7.5-1.2-9.9-3.5C879.9,208.7,878.7,205.4,878.7,201.1z"></path>
</g>
<g class="st0">
	<path class="st1" d="M910.2,189.5c0-9.7,4.4-17.2,13.3-22.5c8.9-5.3,22.8-9.4,41.9-12.3c-0.5-5.8-1.1-10.3-1.9-13.5   c-0.8-3.2-1.9-5.8-3.2-8.1c-1.5-2.7-3.4-4.8-5.6-6.5c-2.2-1.6-5-2.5-8.4-2.5c-2.5,0-4.7,0.5-6.7,1.4c-2,0.9-3.4,2.2-4.1,3.9   c1.6,0.8,2.8,2.1,3.4,3.9c0.6,1.8,1,3.3,1,4.6c0,2.9-1.3,5.5-3.9,7.8c-2.6,2.3-5.7,3.4-9.3,3.4c-3.6,0-6.5-1.2-8.6-3.6   c-2.1-2.4-3.2-5.4-3.2-9c0-4.8,1.7-8.9,5.1-12.3c3.4-3.4,7.7-6,13-7.7c5.3-1.8,10.6-2.6,15.9-2.6c5.5,0,10.4,0.8,14.8,2.4   c4.4,1.6,7.9,3.5,10.6,5.9c9.2,8.2,13.8,21.1,13.8,38.9v22.8c0,5.7,0.4,9.7,1.1,11.9c0.8,2.2,2.4,3.3,5,3.3h7.9v7.9   c-10.7,3.4-18.9,5.1-24.3,5.1c-3.9,0-6.4-1.3-7.7-3.9c-1.3-2.6-1.9-7.6-1.9-15.2h-0.7c-3.6,6-8.4,10.6-14.4,14   c-6,3.4-12.4,5.1-19.3,5.1c-7.4,0-13.1-2-17.3-6C912.3,202,910.2,196.5,910.2,189.5z M944.5,199.1c2.5,0,5.2-0.8,8.1-2.5   c3-1.6,5.6-3.9,7.8-6.8c1.3-1.6,2.5-4,3.7-7c1.2-3,1.8-6.7,1.8-10.9c0-1.4-0.1-3-0.2-4.7c-0.1-1.8-0.3-3.4-0.5-4.9   c-8.1,1.8-14.4,3.6-19,5.6c-4.6,2-7.9,4.4-9.8,7.1c-1.9,2.7-2.9,6.1-2.9,10.1c0,5,1.2,8.6,3.5,10.8   C939.3,198.1,941.8,199.1,944.5,199.1z"></path>
</g>
<g class="st0">
	<path class="st1" d="M1023.3,128.7l-13.5-3.3v-9.8h35.7V197l13.5,3.3v9.8h-49.2v-9.8l13.5-3.3V128.7z M1021.4,89   c0-3.7,1.1-6.8,3.4-9.1c2.3-2.3,5.5-3.5,9.5-3.5c4.1,0,7.3,1.2,9.6,3.5c2.3,2.3,3.5,5.4,3.5,9.1c0,3.6-1.1,6.6-3.4,8.9   c-2.3,2.3-5.5,3.5-9.7,3.5c-4.2,0-7.4-1.1-9.6-3.4C1022.5,95.7,1021.4,92.7,1021.4,89z"></path>
</g>
<g>
	<path class="st2" d="M251.2,9.6c-4.8-2.3-10.3-2.5-15.3-0.6c-5,1.8-9,5.5-11.2,10.4s-2.5,10.3-0.6,15.3c1.8,5,5.5,9,10.4,11.2   c2.6,1.2,5.5,1.8,8.3,1.8c1.5,0,3.2-0.2,4.7-0.6c0.6,8.5-1.5,15.2-5.1,20.3c-0.9-1.1-1.9-2-3.1-3.1c-6.1-5.4-13.8-8.3-21.4-8.4   c-0.1,0-0.2,0-0.3,0c-5.7,0-10.9,1.7-15.1,4.7c-17.3-9.3-38.9-14-64.3-14c-28.2,0-50.8,4.6-68.1,14c-4.3-3.1-9.6-4.7-15.4-4.7   C47,56,39.4,59,33.2,64.3c-1.1,0.9-2.1,2-3.1,3.1c-3.7-5.1-5.8-11.7-5.1-20.3c1.5,0.4,3.1,0.6,4.7,0.6c2.7,0,5.6-0.6,8.3-1.8   c4.8-2.3,8.5-6.2,10.4-11.2s1.7-10.4-0.6-15.3c-2.3-4.8-6.2-8.5-11.2-10.4S26.4,7.3,21.5,9.6c-4.7,2.2-8.5,6.1-10.4,11.2   S9.4,31.1,11.7,36c1.9,4.3,5.3,7.6,9.1,9.5c-1.1,10,1.2,18.5,6.5,25.4c-7.5,10.9-7.7,24.8,0.2,33.8c0.9,1.1,1.9,2,3.1,2.8   c-4,10.7-6.6,22.9-8.2,37c-2.7,25.8,3.8,48.3,19,65.2C61,231.4,94.4,243,138,243c44.1,0,77.7-11.7,97.4-33.8   c15-16.9,21.3-39.3,18.2-64.7c-1.8-14.4-5.1-27.2-10-38.6c0.4-0.4,0.8-0.8,1.2-1.2c8-9.1,7.6-23,0.2-33.8   c5.3-6.9,7.6-15.5,6.5-25.4c4-1.9,7.2-5.2,9.1-9.5C265.6,26.1,261.2,14.3,251.2,9.6z M15.4,34.3c-1.8-3.8-1.9-8-0.5-11.9   c1.4-3.9,4.3-7,8.1-8.8s8-1.9,11.9-0.5c3.9,1.4,7,4.3,8.8,8.1s1.9,8,0.5,11.9c-1.4,3.9-4.3,7-8.1,8.8C28.2,45.4,18.9,42,15.4,34.3z    M36,67.7c5.4-4.7,12-7.4,18.5-7.4c0.1,0,0.1,0,0.2,0c4,0,7.7,0.9,10.8,2.7C60.5,66.1,56,69.4,52,73.3c-8.4,8.1-15.1,17.9-19.9,30   c-0.5-0.4-1.1-0.9-1.4-1.4C22.6,92.6,25,77.2,36,67.7z M249.3,145.1c3,24.2-3,45.3-17.1,61.4c-18.8,21.1-51.3,32.3-94.1,32.3   c-42.3,0-74.6-11-93.4-31.9c-14.2-15.9-20.5-37.3-17.8-61.7c7.1-66,40.4-94.1,111.2-94.1C204.3,51,241.7,82.7,249.3,145.1z    M241.7,101.8c-4.8-10-11-18.6-18.4-26c-5-4.9-10.5-9.1-16.6-12.8c3.2-1.8,6.8-2.7,10.8-2.7c0.1,0,0.1,0,0.2,0   c6.6,0.1,13.3,2.6,18.5,7.4C247.3,77.1,249.6,92.4,241.7,101.8z M256.9,34.3c-3.6,7.7-12.8,11.2-20.7,7.6c-3.8-1.8-6.6-4.9-8.1-8.8   c-1.4-3.9-1.2-8.2,0.5-11.9c1.8-3.8,4.9-6.6,8.8-8.1c1.8-0.6,3.6-0.9,5.4-0.9c2.3,0,4.5,0.5,6.5,1.4   C257.1,17.3,260.4,26.5,256.9,34.3z"></path>
	<path class="st2" d="M182.3,90.6c-22.2-1.8-64.8-2-88.4,0c-28.2,2.5-49.5,28.1-49.5,59.7c0,31.2,20.4,55.7,49.4,59.6   c12.2,1.7,28.8,2.8,46.1,2.8c14.5,0,29.4-0.8,42.6-2.8c29.2-4.5,49.4-29.1,49.4-59.6C232,118.4,210.5,92.8,182.3,90.6z    M181.8,205.5c-28.4,4.4-65.3,3.1-87.5,0c-26.9-3.7-45.7-26.4-45.7-55.3c0-29.2,19.6-53.1,45.6-55.3c11-0.9,26.5-1.3,42-1.3   c17.1,0,34.3,0.5,45.8,1.3c26,1.9,45.6,25.8,45.6,55.3C227.6,178.7,208.7,201.5,181.8,205.5z"></path>
	<path class="st2" d="M90.6,125.5c-9,0-16.3,7.4-16.3,16.3c0,9,7.4,16.3,16.3,16.3s16.3-7.4,16.3-16.3   C107,132.8,99.6,125.5,90.6,125.5z M90.6,153.7c-6.6,0-11.9-5.4-11.9-11.9s5.4-11.9,11.9-11.9c6.6,0,11.9,5.4,11.9,11.9   C102.5,148.3,97.2,153.7,90.6,153.7z"></path>
	<path class="st2" d="M184.1,125.5c-9,0-16.3,7.4-16.3,16.3c0,9,7.4,16.3,16.3,16.3c9,0,16.3-7.4,16.3-16.3   C200.4,132.8,193.1,125.5,184.1,125.5z M184.1,153.7c-6.6,0-11.9-5.4-11.9-11.9s5.4-11.9,11.9-11.9c6.6,0,11.9,5.4,11.9,11.9   S190.7,153.7,184.1,153.7z"></path>
	<path class="st2" d="M165,163.4h-53.8c-1.2,0-2.3,1.1-2.3,2.3c0,16,13.1,29.1,29.1,29.1s29.1-13.1,29.1-29.1   C167.2,164.3,166.2,163.4,165,163.4z M138.1,190.2c-12.8,0-23.4-9.9-24.6-22.5h49.2C161.6,180.3,151,190.2,138.1,190.2z"></path>
</g>
<rect x="76.5" y="118.1" transform="matrix(0.8374 -0.5466 0.5466 0.8374 -54.5078 62.9861)" class="st3" width="4.2" height="10.1"></rect>
<rect x="67.4" y="129.4" transform="matrix(0.5135 -0.8581 0.8581 0.5135 -81.5149 125.0291)" class="st4" width="4.2" height="10.1"></rect>
<rect x="199.6" y="132.5" transform="matrix(0.8374 -0.5466 0.5466 0.8374 -40.2721 133.7686)" class="st3" width="10.1" height="4.2"></rect>
<rect x="192.5" y="120.2" transform="matrix(0.5135 -0.8581 0.8581 0.5135 -8.8566 228.9812)" class="st4" width="10.1" height="4.2"></rect>
</svg>