<?xml version="1.0" encoding="UTF-8" standalone="no"?>
<svg
   width="190"
   height="50"
   fill="none"
   version="1.1"
   id="svg4"
   sodipodi:docname="endel.svg"
   inkscape:version="1.2.2 (732a01da63, 2022-12-09)"
   xmlns:inkscape="http://www.inkscape.org/namespaces/inkscape"
   xmlns:sodipodi="http://sodipodi.sourceforge.net/DTD/sodipodi-0.dtd"
   xmlns="http://www.w3.org/2000/svg"
   xmlns:svg="http://www.w3.org/2000/svg">
  <defs
     id="defs8" />
  <sodipodi:namedview
     id="namedview6"
     pagecolor="#ffffff"
     bordercolor="#000000"
     borderopacity="0.25"
     inkscape:showpageshadow="2"
     inkscape:pageopacity="0.0"
     inkscape:pagecheckerboard="0"
     inkscape:deskcolor="#d1d1d1"
     showgrid="false"
     inkscape:zoom="7.0569257"
     inkscape:cx="120.66161"
     inkscape:cy="39.323072"
     inkscape:window-width="3840"
     inkscape:window-height="2081"
     inkscape:window-x="1991"
     inkscape:window-y="-9"
     inkscape:window-maximized="1"
     inkscape:current-layer="svg4" />
  <g
     id="g415"
     style="fill:#000000">
    <path
       d="m 25.276,0.514 c -13.3,0 -24.499,11.239 -24.499,24.5 0,13.495 11.005,24.5 24.499,24.5 13.493,0 24.498,-11.005 24.498,-24.5 0,-13.494 -11.005,-24.5 -24.498,-24.5 z m 0,1.906 c 12.443,0 22.592,10.15 22.592,22.594 v 0.584 H 33.442 a 4.768,4.768 0 0 0 -3.967,2.1 c -0.894,1.322 -1.088,2.994 -0.466,4.472 0.777,1.866 1.205,3.578 1.205,4.51 0,2.684 -2.177,4.9 -4.9,4.9 a 4.904,4.904 0 0 1 -4.9,-4.9 c 0,-2.605 4.006,-8.594 5.29,-10.577 0.155,-0.194 0.271,-0.389 0.35,-0.506 0,-0.038 0.038,-0.038 0.038,-0.077 0.078,-0.156 0.234,-0.35 0.39,-0.584 2.604,-3.927 5.599,-8.788 5.599,-11.627 0,-3.734 -3.034,-6.806 -6.805,-6.806 -3.733,0 -6.805,3.033 -6.805,6.806 0,1.633 0.855,3.966 1.36,5.21 0.35,0.895 0.273,1.906 -0.272,2.723 a 2.87,2.87 0 0 1 -2.41,1.283 H 2.798 C 4.122,11.403 13.882,2.42 25.276,2.42 Z m 0,45.227 C 12.832,47.647 2.683,37.497 2.683,25.053 V 24.47 h 14.504 a 4.768,4.768 0 0 0 3.967,-2.1 c 0.894,-1.323 1.088,-2.995 0.466,-4.473 -0.777,-1.866 -1.205,-3.577 -1.205,-4.51 0,-2.684 2.177,-4.9 4.9,-4.9 2.683,0 4.9,2.177 4.9,4.9 0,2.605 -4.006,8.594 -5.29,10.577 -0.155,0.195 -0.272,0.389 -0.35,0.506 0,0.039 -0.038,0.039 -0.038,0.078 -0.078,0.155 -0.234,0.35 -0.39,0.583 -2.604,3.928 -5.599,8.789 -5.599,11.628 0,3.733 3.033,6.805 6.805,6.805 3.733,0 6.805,-3.033 6.805,-6.805 0,-1.634 -0.855,-3.967 -1.36,-5.212 -0.35,-0.894 -0.273,-1.905 0.272,-2.722 a 2.87,2.87 0 0 1 2.41,-1.283 H 47.79 C 46.508,38.82 36.904,47.647 25.277,47.647 Z"
       fill="#fff"
       id="path2"
       style="fill:#000000" />
    <g
       aria-label="Endel"
       id="text291"
       style="font-size:49.9965px;font-family:Inter;-inkscape-font-specification:'Inter, Normal';fill:#000000;stroke-width:0.406178">
      <path
         d="M 64.058977,43.145599 V 6.7845098 H 86.003463 V 10.690486 H 68.462078 v 12.286072 h 16.4051 v 3.905976 h -16.4051 v 12.357089 h 17.825456 v 3.905976 z"
         id="path397"
         style="fill:#000000" />
      <path
         d="M 97.579339,26.740498 V 43.145599 H 93.389291 V 15.874782 h 4.048012 v 4.261065 h 0.355089 q 0.95874,-2.077269 2.911728,-3.337834 1.95299,-1.27832 5.04226,-1.27832 2.76969,0 4.84696,1.136284 2.07727,1.11853 3.23131,3.408853 1.15404,2.272568 1.15404,5.752438 v 17.328331 h -4.19005 v -17.04426 q 0,-3.213554 -1.66892,-5.006752 -1.66891,-1.810953 -4.58064,-1.810953 -2.00625,0 -3.5864,0.869968 -1.562388,0.869967 -2.467865,2.538885 -0.905476,1.668917 -0.905476,4.048011 z"
         id="path399"
         style="fill:#000000" />
      <path
         d="m 132.94622,43.713741 q -3.40886,0 -6.01876,-1.72218 -2.6099,-1.739935 -4.08352,-4.900225 -1.47362,-3.178045 -1.47362,-7.510127 0,-4.296575 1.47362,-7.456865 1.47362,-3.16029 4.10128,-4.88247 2.62765,-1.722181 6.07201,-1.722181 2.66317,0 4.20781,0.887722 1.56239,0.869968 2.37909,1.988497 0.83446,1.100776 1.29607,1.810953 h 0.35509 V 6.7845098 h 4.19005 V 43.145599 h -4.04801 v -4.190047 h -0.49713 q -0.46161,0.745686 -1.31382,1.88197 -0.85222,1.11853 -2.43236,2.006252 -1.58015,0.869967 -4.2078,0.869967 z m 0.56814,-3.763941 q 2.52113,0 4.26106,-1.313828 1.73994,-1.331583 2.64541,-3.675169 0.90548,-2.36134 0.90548,-5.450612 0,-3.053764 -0.88772,-5.344086 -0.88772,-2.308077 -2.62766,-3.586397 -1.73993,-1.296074 -4.29657,-1.296074 -2.66317,0 -4.43861,1.367092 -1.75769,1.349337 -2.64541,3.675169 -0.86997,2.308077 -0.86997,5.184296 0,2.911728 0.88772,5.290822 0.90548,2.361341 2.66317,3.763941 1.77544,1.384846 4.4031,1.384846 z"
         id="path401"
         style="fill:#000000" />
      <path
         d="m 165.11727,43.713741 q -3.94148,0 -6.79995,-1.739935 -2.84071,-1.757689 -4.38534,-4.900225 -1.52688,-3.16029 -1.52688,-7.350337 0,-4.190047 1.52688,-7.385846 1.54463,-3.213554 4.29657,-5.006752 2.76969,-1.810953 6.46262,-1.810953 2.13053,0 4.2078,0.710178 2.07727,0.710178 3.78169,2.308077 1.70443,1.580145 2.71643,4.190047 1.01201,2.609903 1.01201,6.427107 v 1.775444 H 155.38784 V 27.30864 h 16.76019 q 0,-2.308077 -0.92323,-4.119029 -0.90548,-1.810953 -2.59215,-2.858465 -1.66891,-1.047512 -3.94148,-1.047512 -2.50338,0 -4.33209,1.242811 -1.81095,1.225056 -2.78744,3.195799 -0.9765,1.970743 -0.9765,4.225556 v 2.414604 q 0,3.089272 1.06527,5.237559 1.08302,2.130533 3.0005,3.249062 1.91748,1.100775 4.45636,1.100775 1.65117,0 2.98275,-0.461615 1.34934,-0.47937 2.32583,-1.420355 0.9765,-0.95874 1.50913,-2.379095 l 4.04801,1.136284 q -0.63916,2.059515 -2.14829,3.621906 -1.50912,1.544636 -3.72843,2.414603 -2.2193,0.852213 -4.989,0.852213 z"
         id="path403"
         style="fill:#000000" />
      <path
         d="M 186.99073,6.7845098 V 43.145599 h -4.19005 V 6.7845098 Z"
         id="path405"
         style="fill:#000000" />
    </g>
  </g>
</svg>
