<svg width="50" height="50" fill="none" xmlns="http://www.w3.org/2000/svg"><path d="M25.276.514C11.976.514.777 11.753.777 25.014c0 13.495 11.005 24.5 24.499 24.5 13.493 0 24.498-11.005 24.498-24.5 0-13.494-11.005-24.5-24.498-24.5zm0 1.906c12.443 0 22.592 10.15 22.592 22.594v.584H33.442a4.768 4.768 0 0 0-3.967 2.1c-.894 1.322-1.088 2.994-.466 4.472.777 1.866 1.205 3.578 1.205 4.51 0 2.684-2.177 4.9-4.9 4.9a4.904 4.904 0 0 1-4.9-4.9c0-2.605 4.006-8.594 5.29-10.577.155-.194.271-.389.35-.506 0-.038.038-.038.038-.077.078-.156.234-.35.39-.584 2.604-3.927 5.599-8.788 5.599-11.627 0-3.734-3.034-6.806-6.805-6.806-3.733 0-6.805 3.033-6.805 6.806 0 1.633.855 3.966 1.36 5.21.35.895.273 1.906-.272 2.723a2.87 2.87 0 0 1-2.41 1.283H2.798C4.122 11.403 13.882 2.42 25.276 2.42zm0 45.227c-12.444 0-22.593-10.15-22.593-22.594v-.583h14.504a4.768 4.768 0 0 0 3.967-2.1c.894-1.323 1.088-2.995.466-4.473-.777-1.866-1.205-3.577-1.205-4.51 0-2.684 2.177-4.9 4.9-4.9 2.683 0 4.9 2.177 4.9 4.9 0 2.605-4.006 8.594-5.29 10.577-.155.195-.272.389-.35.506 0 .039-.038.039-.038.078-.078.155-.234.35-.39.583-2.604 3.928-5.599 8.789-5.599 11.628 0 3.733 3.033 6.805 6.805 6.805 3.733 0 6.805-3.033 6.805-6.805 0-1.634-.855-3.967-1.36-5.212-.35-.894-.273-1.905.272-2.722a2.87 2.87 0 0 1 2.41-1.283h14.31C46.508 38.82 36.904 47.647 25.277 47.647z" fill="#fff"/></svg>