<?xml version="1.0" encoding="UTF-8" standalone="no"?>
<!-- Created with Inkscape (http://www.inkscape.org/) -->

<svg
   width="210mm"
   height="297mm"
   viewBox="0 0 210 297"
   version="1.1"
   id="svg5"
   inkscape:version="1.2.2 (732a01da63, 2022-12-09)"
   sodipodi:docname="podcast_ai.svg"
   xmlns:inkscape="http://www.inkscape.org/namespaces/inkscape"
   xmlns:sodipodi="http://sodipodi.sourceforge.net/DTD/sodipodi-0.dtd"
   xmlns="http://www.w3.org/2000/svg"
   xmlns:svg="http://www.w3.org/2000/svg">
  <sodipodi:namedview
     id="namedview7"
     pagecolor="#ffffff"
     bordercolor="#000000"
     borderopacity="0.25"
     inkscape:showpageshadow="2"
     inkscape:pageopacity="0.0"
     inkscape:pagecheckerboard="0"
     inkscape:deskcolor="#d1d1d1"
     inkscape:document-units="mm"
     showgrid="false"
     inkscape:zoom="0.88907127"
     inkscape:cx="324.49592"
     inkscape:cy="561.82223"
     inkscape:window-width="3840"
     inkscape:window-height="2081"
     inkscape:window-x="1991"
     inkscape:window-y="-9"
     inkscape:window-maximized="1"
     inkscape:current-layer="layer1" />
  <defs
     id="defs2" />
  <g
     inkscape:label="Layer 1"
     inkscape:groupmode="layer"
     id="layer1">
    <g
       aria-label="podcast.ai"
       id="text236"
       style="font-size:32.5676px;font-family:Inter;-inkscape-font-specification:'Inter, @wght=700';font-variation-settings:'wght' 700;fill:#1a1a1a;stroke-width:0.264583">
      <path
         d="m 19.821795,44.158545 v -24.4257 h 4.857383 v 2.983821 h 0.219739 q 0.323826,-0.717042 0.936781,-1.457215 0.624521,-0.751738 1.619128,-1.249042 1.006172,-0.508868 2.498083,-0.508868 1.942954,0 3.585212,1.017737 1.642258,1.006172 2.6253,3.041647 0.983042,2.02391 0.983042,5.077123 0,2.972256 -0.959912,5.019296 -0.948346,2.035475 -2.590604,3.087908 -1.630693,1.040868 -3.654603,1.040868 -1.434085,0 -2.440257,-0.474173 -0.994607,-0.474173 -1.630693,-1.191215 -0.636086,-0.728608 -0.971477,-1.468781 H 24.74857 v 9.506594 z m 4.822688,-15.543628 q 0,1.584433 0.439477,2.764083 0.439478,1.17965 1.272172,1.838867 0.832695,0.647651 2.02391,0.647651 1.202781,0 2.035475,-0.659217 0.832694,-0.670781 1.260607,-1.850431 0.439477,-1.191216 0.439477,-2.740953 0,-1.538171 -0.427912,-2.706256 -0.427912,-1.168085 -1.260607,-1.827302 -0.832694,-0.659216 -2.04704,-0.659216 -1.202781,0 -2.035475,0.636086 -0.821129,0.636086 -1.260607,1.804171 -0.439477,1.168085 -0.439477,2.752517 z"
         style="fill:#ff00d9"
         id="path948" />
      <path
         d="m 48.445674,37.843946 q -2.694691,0 -4.660775,-1.144955 -1.954518,-1.156519 -3.018517,-3.215125 -1.063998,-2.07017 -1.063998,-4.799557 0,-2.752518 1.063998,-4.811123 1.063999,-2.070171 3.018517,-3.215125 1.966084,-1.15652 4.660775,-1.15652 2.694692,0 4.64921,1.15652 1.966084,1.144954 3.030082,3.215125 1.063999,2.058605 1.063999,4.811123 0,2.729387 -1.063999,4.799557 -1.063998,2.058606 -3.030082,3.215125 -1.954518,1.144955 -4.64921,1.144955 z m 0.02313,-3.816515 q 1.225911,0 2.04704,-0.693912 0.821129,-0.705478 1.237476,-1.919823 0.427913,-1.214346 0.427913,-2.764083 0,-1.549737 -0.427913,-2.764083 -0.416347,-1.214345 -1.237476,-1.919823 -0.821129,-0.705477 -2.04704,-0.705477 -1.237477,0 -2.081736,0.705477 -0.832694,0.705478 -1.260607,1.919823 -0.416347,1.214346 -0.416347,2.764083 0,1.549737 0.416347,2.764083 0.427913,1.214345 1.260607,1.919823 0.844259,0.693912 2.081736,0.693912 z"
         style="fill:#ff00d9"
         id="path950" />
      <path
         d="m 66.94998,37.78612 q -2.023909,0 -3.666168,-1.040868 -1.630693,-1.052433 -2.590604,-3.087908 -0.948347,-2.04704 -0.948347,-5.019296 0,-3.053213 0.983042,-5.077123 0.983042,-2.035475 2.613735,-3.041647 1.642259,-1.017737 3.596777,-1.017737 1.491911,0 2.486518,0.508868 1.006172,0.497304 1.619128,1.249042 0.624521,0.740173 0.948346,1.457215 h 0.150348 v -8.905203 h 4.915209 V 37.49699 h -4.857383 v -2.845039 h -0.208174 q -0.346956,0.740173 -0.983042,1.468781 -0.62452,0.717042 -1.630693,1.191215 -0.994607,0.474173 -2.428692,0.474173 z m 1.561302,-3.920602 q 1.191216,0 2.012345,-0.647651 0.832694,-0.659217 1.272172,-1.838867 0.451043,-1.17965 0.451043,-2.764083 0,-1.584432 -0.439478,-2.752517 -0.439478,-1.168085 -1.272172,-1.804171 -0.832694,-0.636086 -2.02391,-0.636086 -1.214346,0 -2.04704,0.659216 -0.832694,0.659217 -1.260607,1.827302 -0.427912,1.168085 -0.427912,2.706256 0,1.549737 0.427912,2.740953 0.439478,1.17965 1.260607,1.850431 0.832694,0.659217 2.04704,0.659217 z"
         style="fill:#ff00d9"
         id="path952" />
      <path
         d="m 89.12045,37.843946 q -2.729387,0 -4.69547,-1.15652 Q 82.470461,35.519341 81.418028,33.449171 80.37716,31.379 80.37716,28.684309 q 0,-2.729387 1.052433,-4.787993 1.063998,-2.07017 3.018517,-3.22669 1.954519,-1.168085 4.64921,-1.168085 2.324605,0 4.07095,0.844259 1.746345,0.84426 2.764083,2.370866 1.017737,1.526606 1.121824,3.585212 h -4.64921 q -0.196608,-1.329998 -1.040868,-2.139562 -0.832694,-0.821129 -2.185823,-0.821129 -1.144954,0 -2.000779,0.62452 -0.84426,0.612956 -1.318433,1.792606 -0.474173,1.179651 -0.474173,2.856604 0,1.700085 0.462608,2.8913 0.474173,1.191216 1.329998,1.815736 0.855825,0.624521 2.000779,0.624521 0.84426,0 1.515041,-0.346956 0.682347,-0.346956 1.121825,-1.006172 0.451043,-0.670782 0.589825,-1.607563 h 4.64921 q -0.115652,2.035475 -1.110259,3.585212 -0.983042,1.538171 -2.717822,2.405561 -1.73478,0.86739 -4.105646,0.86739 z"
         style="fill:#ff00d9"
         id="path954" />
      <path
         d="m 105.28861,37.832381 q -1.70008,0 -3.03008,-0.589825 -1.33,-0.601391 -2.10487,-1.769476 -0.763299,-1.17965 -0.763299,-2.93756 0,-1.480346 0.543564,-2.486518 0.543565,-1.006172 1.480345,-1.619128 0.93678,-0.612955 2.128,-0.925216 1.20278,-0.31226 2.52121,-0.439477 1.54974,-0.161913 2.49808,-0.300695 0.94835,-0.150348 1.37626,-0.439478 0.42791,-0.28913 0.42791,-0.855825 v -0.06939 q 0,-1.098694 -0.69391,-1.700084 -0.68234,-0.60139 -1.94295,-0.60139 -1.33,0 -2.11643,0.589825 -0.78644,0.57826 -1.04087,1.457215 l -4.55669,-0.370087 q 0.34696,-1.619127 1.3647,-2.798778 1.01773,-1.191215 2.6253,-1.827301 1.61912,-0.647651 3.74712,-0.647651 1.48035,0 2.83347,0.346956 1.3647,0.346956 2.41713,1.075563 1.064,0.728608 1.67695,1.873562 0.61296,1.13339 0.61296,2.717822 V 37.49699 h -4.67234 v -2.463387 h -0.13878 q -0.42792,0.832694 -1.14496,1.46878 -0.71704,0.624521 -1.72321,0.983042 -1.00617,0.346956 -2.32461,0.346956 z m 1.41096,-3.400169 q 1.08713,0 1.91982,-0.427912 0.83269,-0.439477 1.30687,-1.17965 0.47417,-0.740173 0.47417,-1.676954 v -1.885127 q -0.2313,0.150347 -0.63609,0.277564 -0.39321,0.115652 -0.89052,0.219739 -0.4973,0.09252 -0.9946,0.173478 -0.49731,0.06939 -0.90209,0.127217 -0.86739,0.127217 -1.51504,0.404782 -0.64765,0.277565 -1.00617,0.751738 -0.35852,0.462608 -0.35852,1.15652 0,1.006172 0.7286,1.538172 0.74018,0.520433 1.87357,0.520433 z"
         style="fill:#ff00d9"
         id="path956" />
      <path
         d="m 133.90092,24.798402 -4.51043,0.277565 q -0.11565,-0.57826 -0.4973,-1.040868 -0.38166,-0.474174 -1.00618,-0.751738 -0.61295,-0.28913 -1.46878,-0.28913 -1.14495,0 -1.93139,0.485738 -0.78643,0.474173 -0.78643,1.272172 0,0.636086 0.50887,1.075563 0.50887,0.439478 1.74634,0.705478 l 3.21513,0.647651 q 2.5906,0.531999 3.86278,1.711649 1.27217,1.17965 1.27217,3.099474 0,1.746345 -1.0293,3.064777 -1.01774,1.318433 -2.79878,2.058606 -1.76948,0.728607 -4.08252,0.728607 -3.52738,0 -5.62068,-1.46878 -2.08174,-1.480346 -2.44026,-4.024689 l 4.84582,-0.254435 q 0.21974,1.075564 1.064,1.642259 0.84426,0.555129 2.16269,0.555129 1.2953,0 2.08173,-0.497303 0.798,-0.508869 0.80957,-1.306868 -0.0116,-0.670781 -0.5667,-1.098694 -0.55513,-0.439477 -1.71165,-0.670781 l -3.07634,-0.612956 q -2.60217,-0.520434 -3.87434,-1.804171 -1.26061,-1.283737 -1.26061,-3.272951 0,-1.71165 0.92522,-2.949126 0.93678,-1.237476 2.6253,-1.908258 1.70008,-0.670781 3.97843,-0.670781 3.36547,0 5.29686,1.422519 1.94295,1.42252 2.26678,3.874342 z"
         style="fill:#ff00d9"
         id="path958" />
      <path
         d="m 146.86553,19.732845 v 3.700863 h -10.69781 v -3.700863 z m -8.26912,-4.255994 h 4.92677 v 16.561365 q 0,0.682347 0.20818,1.063999 0.20817,0.370086 0.57826,0.520434 0.38165,0.150347 0.87895,0.150347 0.34696,0 0.69391,-0.05783 0.34696,-0.06939 0.532,-0.104087 l 0.77487,3.666168 q -0.37009,0.115652 -1.04087,0.266 -0.67078,0.161913 -1.63069,0.196608 -1.78104,0.06939 -3.1226,-0.474173 -1.33,-0.543564 -2.07017,-1.688519 -0.74018,-1.144955 -0.72861,-2.8913 z"
         style="fill:#ff00d9"
         id="path960" />
      <path
         d="m 152.94883,37.797685 q -1.14496,0 -1.96609,-0.809564 -0.80956,-0.821129 -0.80956,-1.966083 0,-1.13339 0.80956,-1.942954 0.82113,-0.809564 1.96609,-0.809564 1.11026,0 1.94295,0.809564 0.8327,0.809564 0.8327,1.942954 0,0.763303 -0.39322,1.399389 -0.38165,0.62452 -1.00617,1.006172 -0.62452,0.370086 -1.37626,0.370086 z"
         style="fill:#ff00d9"
         id="path962" />
      <path
         d="m 164.82626,37.832381 q -1.70009,0 -3.03009,-0.589825 -1.32999,-0.601391 -2.10486,-1.769476 -0.76331,-1.17965 -0.76331,-2.93756 0,-1.480346 0.54357,-2.486518 0.54356,-1.006172 1.48034,-1.619128 0.93679,-0.612955 2.128,-0.925216 1.20278,-0.31226 2.52121,-0.439477 1.54974,-0.161913 2.49809,-0.300695 0.94834,-0.150348 1.37626,-0.439478 0.42791,-0.28913 0.42791,-0.855825 v -0.06939 q 0,-1.098694 -0.69391,-1.700084 -0.68235,-0.60139 -1.94296,-0.60139 -1.33,0 -2.11643,0.589825 -0.78643,0.57826 -1.04087,1.457215 l -4.55668,-0.370087 q 0.34695,-1.619127 1.36469,-2.798778 1.01774,-1.191215 2.6253,-1.827301 1.61913,-0.647651 3.74712,-0.647651 1.48035,0 2.83348,0.346956 1.36469,0.346956 2.41712,1.075563 1.064,0.728608 1.67696,1.873562 0.61295,1.13339 0.61295,2.717822 V 37.49699 h -4.67234 v -2.463387 h -0.13878 q -0.42791,0.832694 -1.14495,1.46878 -0.71705,0.624521 -1.72322,0.983042 -1.00617,0.346956 -2.3246,0.346956 z m 1.41095,-3.400169 q 1.08713,0 1.91982,-0.427912 0.8327,-0.439477 1.30687,-1.17965 0.47417,-0.740173 0.47417,-1.676954 v -1.885127 q -0.2313,0.150347 -0.63608,0.277564 -0.39322,0.115652 -0.89052,0.219739 -0.49731,0.09252 -0.99461,0.173478 -0.4973,0.06939 -0.90209,0.127217 -0.86739,0.127217 -1.51504,0.404782 -0.64765,0.277565 -1.00617,0.751738 -0.35852,0.462608 -0.35852,1.15652 0,1.006172 0.72861,1.538172 0.74017,0.520433 1.87356,0.520433 z"
         style="fill:#ff00d9"
         id="path964" />
      <path
         d="M 178.65824,37.49699 V 19.732845 h 4.92677 V 37.49699 Z m 2.47495,-20.054055 q -1.0987,0 -1.88513,-0.728607 -0.77487,-0.740173 -0.77487,-1.769476 0,-1.017737 0.77487,-1.746345 0.78643,-0.740173 1.88513,-0.740173 1.09869,0 1.87356,0.740173 0.78643,0.728608 0.78643,1.746345 0,1.029303 -0.78643,1.769476 -0.77487,0.728607 -1.87356,0.728607 z"
         style="fill:#ff00d9"
         id="path966" />
    </g>
  </g>
</svg>
