<svg width="158" height="53" viewBox="0 0 158 53" fill="none" xmlns="http://www.w3.org/2000/svg">
<path d="M21.2024 25.1439C20.9421 25.4269 20.7054 25.8279 20.4925 26.2289C20.0665 27.0544 19.7589 27.9743 19.5459 28.9178C19.12 30.8047 19.0963 32.8096 19.4513 34.7202C19.5696 35.3099 19.7116 35.876 19.9009 36.442C20.2558 35.8052 20.5871 35.1448 20.8711 34.4843C21.2734 33.5644 21.581 32.6209 21.8413 31.6303C22.1016 30.6632 22.2909 29.6726 22.3619 28.7055C22.4092 28.2102 22.4329 27.7384 22.4092 27.2431C22.4092 26.7714 22.3619 26.2996 22.2672 25.8751C22.2199 25.6628 22.1726 25.4505 22.1016 25.2854C22.0306 25.0967 21.9596 24.9552 21.8886 24.8372C21.8649 24.8136 21.8413 24.7901 21.8413 24.7665L21.8176 24.7429L21.794 24.7193C21.7703 24.6957 21.7703 24.6957 21.7466 24.6721C21.723 24.6721 21.6283 24.7193 21.5337 24.7901C21.4627 24.8608 21.3207 25.0023 21.2024 25.1439Z" fill="white"/>
<path d="M35.9209 19.0112C35.8973 19.8132 35.8736 20.6151 35.8263 21.4171C35.7553 22.5021 35.637 23.6107 35.495 24.6957C35.211 26.8657 34.7851 29.0357 34.1698 31.1585C33.8622 32.2199 33.5073 33.2813 33.105 34.2956C32.9157 34.8145 32.6791 35.3334 32.4424 35.8287C32.2058 36.3476 31.9691 36.843 31.6852 37.3383C31.1409 38.329 30.5257 39.296 29.7921 40.1923C29.4372 40.6405 29.0349 41.0886 28.5853 41.4896C28.1357 41.9142 27.6624 42.2916 27.1182 42.6454C26.5739 42.9756 25.9823 43.2822 25.2961 43.4709C24.6335 43.6596 23.8763 43.7304 23.1664 43.6124L22.9061 43.5653C22.8114 43.5417 22.7168 43.5181 22.6458 43.4945C22.4565 43.4473 22.2908 43.3766 22.1252 43.3294C21.7939 43.1879 21.4626 43.0228 21.1787 42.8341C20.5871 42.4567 20.1138 41.9849 19.7115 41.5132C19.6169 41.3953 19.5222 41.2773 19.4276 41.1358L19.2856 40.9235L19.2619 40.9471C18.4337 41.7491 17.4872 42.4567 16.446 43.0228C16.304 43.0935 16.1857 43.1643 16.0437 43.2115C15.9018 43.2822 15.7834 43.3294 15.6415 43.4002C15.3575 43.5181 15.0972 43.6124 14.8132 43.7068C14.5293 43.8011 14.2217 43.8719 13.914 43.9427C13.6064 44.0134 13.2751 44.037 12.9202 44.037C12.5652 44.037 12.1866 43.9898 11.808 43.8483C11.4294 43.7304 11.0508 43.5181 10.7668 43.235C10.4592 42.9756 10.2226 42.6454 10.0569 42.3387C9.89127 42.0321 9.74929 41.7019 9.6783 41.3953C9.48899 40.782 9.418 40.1923 9.39434 39.6026C9.34701 39.0366 9.37068 38.4705 9.39434 37.9044C9.44167 36.7958 9.55998 35.7108 9.70196 34.673C9.84394 33.6116 9.98592 32.5737 10.1279 31.5359L10.1752 31.1585C10.1989 31.017 10.1989 30.9226 10.1989 30.8047L10.2226 30.616V30.4509C10.2226 30.333 10.2226 30.215 10.2226 30.0971C10.2226 29.6489 10.1516 29.2008 10.0332 28.8706C9.96226 28.729 9.89127 28.6111 9.82028 28.5403C9.74929 28.4696 9.72563 28.446 9.63097 28.446C9.53632 28.446 9.39434 28.446 9.2287 28.4932C9.13404 28.5403 9.06305 28.5639 8.9684 28.6111C8.92107 28.6347 8.87375 28.6583 8.82642 28.6819L8.68444 28.7762C8.32949 29.0121 7.95088 29.3187 7.61959 29.6725C7.2883 30.0263 6.95702 30.4037 6.62573 30.8047C6.01048 31.6067 5.4189 32.4794 4.85098 33.3521C4.73266 33.5172 4.51969 33.5644 4.35405 33.47C4.21207 33.3757 4.16474 33.2106 4.21207 33.069C4.37771 32.5501 4.54336 32.0312 4.77999 31.5359C4.99296 31.0406 5.22959 30.5452 5.51355 30.0499C5.79751 29.5782 6.10514 29.1064 6.46009 28.6583C6.81504 28.2101 7.21731 27.7856 7.73791 27.4082L7.92721 27.2666C7.9982 27.2195 8.06919 27.1723 8.14018 27.1487C8.28216 27.0544 8.44781 26.9836 8.58979 26.9128C8.92107 26.7713 9.29969 26.677 9.74929 26.7241C9.86761 26.7477 9.96226 26.7477 10.0806 26.7713C10.1989 26.7949 10.2935 26.8421 10.4119 26.8657C10.5065 26.9128 10.6248 26.96 10.7195 27.0308C10.8141 27.1015 10.9088 27.1723 10.9798 27.2431C11.3111 27.5261 11.524 27.8799 11.666 28.2101C11.95 28.8706 12.021 29.4838 12.0446 30.0971C12.0446 30.2386 12.0446 30.4037 12.0446 30.5452V30.7575L12.021 30.9698C12.021 31.1113 11.9973 31.2764 11.9973 31.3944L11.95 31.7954C11.8553 32.8804 11.7133 33.9182 11.595 34.956C11.4767 35.9938 11.3821 37.0317 11.3584 38.0459C11.3347 38.5412 11.3584 39.0366 11.3821 39.5319C11.4294 40.0036 11.5004 40.4754 11.6187 40.8528C11.6897 41.0415 11.7607 41.2302 11.8317 41.3717C11.9263 41.5132 12.021 41.6311 12.1156 41.7019C12.2103 41.7727 12.3049 41.8434 12.4469 41.867C12.5652 41.9142 12.7309 41.9378 12.8965 41.9378C13.6064 41.9378 14.6003 41.5604 15.4048 41.1358C16.233 40.6877 16.9903 40.098 17.6765 39.414C17.8421 39.2488 17.9841 39.1073 18.1261 38.9422C18.0551 38.8007 17.9841 38.6356 17.9368 38.4941C17.4872 37.4326 17.1559 36.3241 16.9666 35.1919C16.7536 34.0597 16.6826 32.9039 16.7063 31.7718C16.73 30.6396 16.872 29.4838 17.1322 28.3752C17.3925 27.2666 17.7712 26.1581 18.3154 25.0966C18.5994 24.5777 18.9307 24.0352 19.3803 23.5399C19.6169 23.2804 19.8535 23.0446 20.1848 22.8323C20.5161 22.62 20.8947 22.4077 21.4153 22.3134C21.6756 22.2662 21.9596 22.2662 22.2199 22.3134C22.5038 22.3606 22.7405 22.4549 22.9771 22.5964C23.0954 22.6672 23.1901 22.7379 23.2847 22.8087C23.3794 22.8795 23.474 22.9502 23.545 23.0446L23.6633 23.1625C23.7106 23.2097 23.7343 23.2333 23.758 23.2804C23.829 23.3512 23.8763 23.4456 23.9473 23.5163C24.1603 23.8465 24.3259 24.1768 24.4205 24.507C24.5389 24.8372 24.6099 25.1438 24.6808 25.4504C24.7992 26.0637 24.8465 26.6534 24.8465 27.2431C24.8465 27.8327 24.8228 28.3988 24.7518 28.9649C24.6335 30.0971 24.4205 31.1821 24.1129 32.2671C23.829 33.3521 23.4504 34.3899 23.0007 35.4277C22.5511 36.442 22.0306 37.4326 21.4153 38.3761C21.297 38.5648 21.1787 38.7299 21.0604 38.9186L21.1787 39.1073L21.368 39.3904L21.5573 39.6498L21.7703 39.9093C22.0542 40.2395 22.3382 40.499 22.6695 40.6877C22.8351 40.782 22.9771 40.8528 23.1427 40.9235C23.2137 40.9471 23.3084 40.9707 23.3794 40.9943C23.4267 40.9943 23.4504 41.0179 23.4977 41.0179L23.616 41.0415C23.7816 41.065 23.9473 41.065 24.1129 41.0415C24.2786 41.0415 24.4442 40.9943 24.6335 40.9471C24.9885 40.8292 25.3434 40.6641 25.6984 40.4282C26.4083 39.9565 27.0708 39.296 27.6388 38.5412C27.9227 38.1638 28.2067 37.7629 28.467 37.3619C28.7273 36.9373 28.9639 36.5128 29.2005 36.0882C30.0997 34.3192 30.7623 32.4086 31.2593 30.4509C32.2294 26.5119 32.4897 22.3841 32.2294 18.3036C32.2294 18.28 32.2294 18.2564 32.2294 18.2328C32.2058 17.9026 32.1111 16.6997 31.8982 15.5203C28.6563 13.3739 24.7755 12.1474 20.5871 12.1474C9.18137 12.0766 0 21.252 0 32.5501C0 43.8483 9.18137 53.0001 20.5161 53.0001C31.8508 53.0001 41.0322 43.8483 41.0322 32.5501C41.0559 27.361 39.1155 22.62 35.9209 19.0112Z" fill="white"/>
<path d="M39.4945 4.10409L35.1168 4.41072L33.697 0.165058C33.626 -0.0236379 33.3421 -5.08465e-05 33.3184 0.212232L32.6322 5.33061L29.0117 7.94877C28.8697 8.0667 28.9407 8.27899 29.1063 8.30257L32.8688 8.60921L34.4306 12.3831C34.5016 12.5718 34.7619 12.5482 34.8092 12.336L35.7084 7.80725L39.6602 4.48148C39.7785 4.31637 39.6838 4.0805 39.4945 4.10409Z" fill="white"/>
<path d="M65.9731 27.7383H69.5226L65.3815 39.3903H62.5656L60.1756 31.8424L57.8566 39.4138H55.0406L50.7812 27.7619H54.3307L56.5314 34.8851L58.7558 27.7619H61.5244L63.7487 34.8851L65.9731 27.7383Z" fill="white"/>
<path d="M69.9248 33.5879C69.9248 29.8848 72.8827 27.4553 76.2192 27.4553C79.5558 27.4553 82.5137 29.9084 82.5137 33.5879C82.5137 37.2675 79.5558 39.697 76.2192 39.697C72.8591 39.697 69.9248 37.2675 69.9248 33.5879ZM79.1535 33.5879C79.1535 31.7717 77.8284 30.498 76.1956 30.498C74.5628 30.498 73.2377 31.7717 73.2377 33.5879C73.2377 35.3806 74.5628 36.6543 76.1956 36.6543C77.8284 36.6543 79.1535 35.3806 79.1535 33.5879Z" fill="white"/>
<path d="M93.2563 27.8326L92.4991 30.9461C91.7892 30.5687 91.2213 30.5215 90.819 30.5215C89.1389 30.5215 87.9794 32.1019 87.9794 35.404V39.3902H84.7139V27.7383H87.9794V30.2385C88.642 28.2808 89.9671 27.4316 91.4106 27.4316C92.0258 27.4552 92.7357 27.5496 93.2563 27.8326Z" fill="white"/>
<path d="M103.313 21.417H106.602V39.4139H103.313V37.9751C102.485 39.178 100.852 39.7205 99.5507 39.7205C96.5455 39.7205 93.8242 37.3146 93.8242 33.5879C93.8242 29.8611 96.5455 27.4789 99.5507 27.4789C100.9 27.4789 102.485 27.9978 103.313 29.2007V21.417ZM103.219 33.5643C103.219 31.7717 101.704 30.498 100.19 30.498C98.5332 30.498 97.1607 31.8424 97.1607 33.5643C97.1607 35.2626 98.5332 36.6542 100.19 36.6542C101.775 36.6542 103.219 35.3333 103.219 33.5643Z" fill="white"/>
<path d="M116.281 27.7383V30.2857H113.797V39.3903H110.508V30.2857H108.378V27.7383H110.508V23.4927H113.797V27.7383H116.281Z" fill="white"/>
<path d="M125.983 27.7383H129.272V39.3903H125.983V37.5033C125.486 39.0365 123.617 39.6969 122.481 39.6969C119.428 39.6969 117.819 37.6448 117.843 34.1539V27.7383H121.132V33.9888C121.132 35.805 122.244 36.6542 123.357 36.6542C124.54 36.6542 125.983 35.9937 125.983 33.9181V27.7383Z" fill="white"/>
<path d="M143.612 33.0219V39.4139H140.323V33.187C140.323 31.3708 139.211 30.5452 138.098 30.5452C136.915 30.5452 135.472 31.1585 135.472 33.2813V39.3903H132.183V27.7384H135.472V29.7197C135.969 28.1393 137.838 27.4553 138.974 27.4553C142.027 27.4553 143.636 29.531 143.612 33.0219Z" fill="white"/>
<path d="M157.928 34.6493H149.126C149.481 36.0173 150.569 36.8193 152.131 36.8193C153.338 36.8193 154.497 36.2768 155.207 35.4513L157.1 37.3854C155.988 38.8478 153.977 39.7441 151.918 39.7441C148.321 39.7441 145.671 37.2203 145.671 33.6351C145.671 29.8611 148.558 27.5024 151.894 27.5024C155.255 27.5024 157.976 29.8847 157.976 33.4464C157.999 33.7058 157.976 34.1068 157.928 34.6493ZM154.71 32.5265C154.616 31.1584 153.48 30.2857 152.013 30.2857C150.664 30.2857 149.504 30.9697 149.149 32.5265H154.71Z" fill="white"/>
</svg>
