<?xml version="1.0" encoding="UTF-8" standalone="no"?>
<!-- Created with Inkscape (http://www.inkscape.org/) -->

<svg
   width="210mm"
   height="297mm"
   viewBox="0 0 210 297"
   version="1.1"
   id="svg5"
   xml:space="preserve"
   inkscape:version="1.2.2 (732a01da63, 2022-12-09)"
   sodipodi:docname="thing_translator_text.svg"
   xmlns:inkscape="http://www.inkscape.org/namespaces/inkscape"
   xmlns:sodipodi="http://sodipodi.sourceforge.net/DTD/sodipodi-0.dtd"
   xmlns="http://www.w3.org/2000/svg"
   xmlns:svg="http://www.w3.org/2000/svg"><sodipodi:namedview
     id="namedview7"
     pagecolor="#ffffff"
     bordercolor="#000000"
     borderopacity="0.25"
     inkscape:showpageshadow="2"
     inkscape:pageopacity="0.0"
     inkscape:pagecheckerboard="0"
     inkscape:deskcolor="#d1d1d1"
     inkscape:document-units="mm"
     showgrid="false"
     inkscape:zoom="2.5146733"
     inkscape:cx="439.4209"
     inkscape:cy="354.12155"
     inkscape:window-width="3840"
     inkscape:window-height="2081"
     inkscape:window-x="1991"
     inkscape:window-y="-9"
     inkscape:window-maximized="1"
     inkscape:current-layer="layer2" /><defs
     id="defs2" /><g
     inkscape:groupmode="layer"
     id="layer2"
     inkscape:label="Layer 2"><path
       id="text1637"
       style="font-style:normal;font-variant:normal;font-weight:300;font-stretch:normal;font-size:32.5676px;font-family:'Source Sans Pro';-inkscape-font-specification:'Source Sans Pro, Light';font-variant-ligatures:normal;font-variant-caps:normal;font-variant-numeric:normal;font-variant-east-asian:normal;fill:#000000;stroke-width:0.144015"
       d="m 44.185007,45.65923 v 12.745642 h 0.77999 v -6.417123 c 0.519987,-0.531805 0.986868,-0.92757 1.400493,-1.187564 0.413626,-0.27181 0.874605,-0.407857 1.382773,-0.407857 0.697254,0 1.193649,0.218684 1.489097,0.655946 0.307264,0.425443 0.460736,1.093299 0.460736,2.003277 v 5.353321 h 0.779989 v -5.459646 c 0,-1.099063 -0.212781,-1.914487 -0.638224,-2.446292 -0.413625,-0.543623 -1.05759,-0.815431 -1.932112,-0.815431 -0.579077,0 -1.104985,0.147569 -1.5777,0.443017 -0.460899,0.283627 -0.915972,0.649881 -1.365052,1.098961 V 45.65923 Z m 74.009853,0 v 11.611239 c 0,0.898159 0.34854,1.347331 1.0458,1.347331 0.12999,0 0.23624,-0.01181 0.31897,-0.03544 0.0828,-0.01182 0.16564,-0.02953 0.24836,-0.05316 l -0.14176,-0.638224 c -0.0828,0.01182 -0.14794,0.02363 -0.19521,0.03544 h -0.12405 c -0.24815,0 -0.37212,-0.183267 -0.37212,-0.549621 V 45.65923 Z m -64.242403,0.762269 c -0.189087,0 -0.348461,0.06521 -0.478458,0.195208 -0.129997,0.129995 -0.194927,0.295274 -0.194927,0.496178 0,0.224539 0.06493,0.401903 0.194927,0.531901 0.129997,0.129996 0.289371,0.194927 0.478458,0.194927 0.200903,0 0.360559,-0.06493 0.478738,-0.194927 0.129997,-0.129998 0.194927,-0.307362 0.194927,-0.531901 0,-0.200904 -0.06493,-0.366183 -0.194927,-0.496178 -0.118179,-0.129996 -0.277835,-0.195208 -0.478738,-0.195208 z m -20.173123,0.301532 v 0.709106 h 3.722742 v 10.972735 h 0.81543 V 47.432137 h 3.722742 v -0.709106 z m 44.317354,0 v 0.709106 h 3.722461 v 10.972735 h 0.81543 V 47.432137 h 3.722744 v -0.709106 z m 53.127332,0.709106 -0.10632,2.464014 -1.34733,0.07088 v 0.602784 h 1.32962 v 5.477365 c 0,0.756345 0.14756,1.376979 0.443,1.861511 0.29546,0.472716 0.85678,0.709107 1.68403,0.709107 0.16545,0 0.37233,-0.03542 0.6205,-0.106323 0.26,-0.05909 0.51409,-0.130204 0.76227,-0.212929 l -0.21264,-0.638225 c -0.15364,0.07091 -0.33102,0.136119 -0.5319,0.195208 -0.18909,0.04727 -0.36618,0.07088 -0.53163,0.07088 -0.57907,0 -0.96331,-0.165558 -1.1524,-0.496459 -0.18908,-0.3309 -0.28352,-0.767987 -0.28352,-1.311608 v -5.54853 h 2.464 V 49.89615 h -2.464 v -2.464014 z m -69.896964,2.251366 c -0.579076,0 -1.104985,0.147569 -1.5777,0.443017 -0.460897,0.283627 -0.91007,0.643978 -1.347331,1.08124 h -0.05316 l -0.07088,-1.311609 H 57.60432 v 8.508721 h 0.77999 v -6.417123 c 0.519986,-0.531805 0.986867,-0.92757 1.400492,-1.187564 0.413626,-0.27181 0.874323,-0.407857 1.382492,-0.407857 0.697255,0 1.193649,0.218684 1.489096,0.655946 0.307266,0.425443 0.461018,1.093299 0.461018,2.003277 v 5.353321 h 0.77999 v -5.459646 c 0,-1.099063 -0.212781,-1.914487 -0.638225,-2.446292 -0.413626,-0.543623 -1.057589,-0.815431 -1.932112,-0.815431 z m 8.366955,0 c -0.55544,0 -1.06364,0.129862 -1.524537,0.389854 -0.449079,0.248176 -0.80943,0.596721 -1.08124,1.045799 -0.259994,0.449079 -0.390136,0.969085 -0.390136,1.55998 0,0.508168 0.112435,0.969147 0.336973,1.382771 0.22454,0.40181 0.466835,0.72084 0.726828,0.957197 v 0.07088 c -0.189085,0.129998 -0.390061,0.330973 -0.602783,0.602783 -0.212721,0.259995 -0.318971,0.579025 -0.318971,0.957196 0,0.3309 0.07083,0.608611 0.212647,0.833152 0.141814,0.22454 0.318898,0.401905 0.53162,0.5319 v 0.07088 c -0.38999,0.283629 -0.697215,0.60266 -0.921756,0.957196 -0.224538,0.354536 -0.336691,0.721071 -0.336691,1.099243 0,0.72089 0.313128,1.294021 0.939474,1.719464 0.626349,0.425444 1.47719,0.638225 2.552618,0.638225 0.815433,0 1.52462,-0.136045 2.127317,-0.407857 0.602715,-0.27181 1.069597,-0.63216 1.400494,-1.08124 0.330903,-0.437261 0.496183,-0.898239 0.496183,-1.382772 0,-0.67362 -0.230489,-1.164111 -0.691389,-1.471377 C 72.70158,57.837696 71.998592,57.67832 71.04134,57.67832 h -1.825786 c -0.638165,0 -1.069631,-0.106531 -1.294169,-0.319252 -0.224541,-0.224541 -0.336973,-0.490445 -0.336973,-0.797711 0,-0.283628 0.06521,-0.52002 0.195208,-0.709107 0.141813,-0.189085 0.307091,-0.360266 0.496178,-0.513898 0.200903,0.118179 0.42549,0.20672 0.673666,0.265809 0.259993,0.05909 0.50819,0.0886 0.744547,0.0886 0.555441,0 1.057735,-0.129861 1.506818,-0.389853 0.449078,-0.259995 0.803537,-0.614722 1.063517,-1.063802 0.259995,-0.449079 0.390139,-0.963182 0.390139,-1.542258 0,-0.449079 -0.08882,-0.856651 -0.266091,-1.223005 -0.177271,-0.378172 -0.401576,-0.685397 -0.673388,-0.921755 h 1.985279 v -0.655945 h -2.889591 c -0.130001,-0.05909 -0.289373,-0.106311 -0.478458,-0.141764 -0.189087,-0.04727 -0.401868,-0.07088 -0.638225,-0.07088 z m 21.148318,0 c -0.508157,0 -0.969144,0.171181 -1.382771,0.513899 -0.401809,0.330901 -0.744447,0.756463 -1.028076,1.276448 h -0.05345 l -0.07088,-1.577699 h -0.673388 v 8.508721 h 0.779991 v -5.79662 c 0.330902,-0.803614 0.703058,-1.364939 1.116685,-1.684023 0.425443,-0.3309 0.827111,-0.496459 1.205281,-0.496459 0.165454,0 0.301494,0.01181 0.407858,0.03545 0.106357,0.01182 0.230319,0.04752 0.372134,0.106605 l 0.177488,-0.709107 c -0.141815,-0.07091 -0.277859,-0.118129 -0.407856,-0.141765 -0.129999,-0.02364 -0.277566,-0.03545 -0.44302,-0.03545 z m 5.016633,0 c -0.460899,0 -0.898264,0.06493 -1.31189,0.194927 -0.40181,0.118178 -0.76216,0.265748 -1.081239,0.443017 -0.319086,0.165449 -0.579086,0.319202 -0.779992,0.461017 l 0.354411,0.585062 c 0.295447,-0.212722 0.679703,-0.431405 1.152403,-0.655944 0.472717,-0.224541 0.992723,-0.336973 1.559982,-0.336973 0.567258,0 0.992538,0.136045 1.276168,0.407855 0.295445,0.271813 0.496421,0.614453 0.602785,1.028079 0.106358,0.401808 0.153582,0.821467 0.14176,1.258727 -1.890852,0.212723 -3.279414,0.56717 -4.165757,1.063521 -0.886328,0.484532 -1.329608,1.199612 -1.329608,2.145041 0,0.803615 0.242294,1.394454 0.726828,1.772627 0.484534,0.378172 1.063565,0.567341 1.737188,0.567341 0.555429,0 1.087247,-0.130141 1.595416,-0.390134 0.508173,-0.271811 0.980956,-0.579037 1.418216,-0.921756 h 0.05316 l 0.07088,1.098962 h 0.673663 v -5.441925 c 0,-0.61453 -0.08854,-1.164049 -0.265808,-1.648582 -0.165449,-0.496352 -0.443161,-0.892399 -0.833155,-1.187845 -0.389986,-0.295448 -0.921799,-0.443017 -1.595416,-0.443017 z m 9.448488,0 c -0.57908,0 -1.10499,0.147569 -1.5777,0.443017 -0.4609,0.283627 -0.91007,0.643978 -1.34734,1.08124 h -0.0532 l -0.0709,-1.311609 h -0.67367 v 8.508721 h 0.77999 v -6.417123 c 0.51999,-0.531805 0.98688,-0.92757 1.4005,-1.187564 0.41362,-0.27181 0.87433,-0.407857 1.38249,-0.407857 0.69726,0 1.19365,0.218684 1.4891,0.655946 0.30725,0.425443 0.46101,1.093299 0.46101,2.003277 v 5.353321 h 0.77999 v -5.459646 c 0,-1.099063 -0.21278,-1.914487 -0.63822,-2.446292 -0.41362,-0.543623 -1.05759,-0.815431 -1.93211,-0.815431 z m 7.85277,0 c -0.88634,0 -1.56572,0.224306 -2.03843,0.673385 -0.4609,0.437261 -0.69139,0.969072 -0.69139,1.59542 0,0.484533 0.12985,0.88058 0.38985,1.187846 0.26,0.295446 0.59111,0.53774 0.99292,0.726827 0.41363,0.189085 0.83301,0.360265 1.25844,0.513899 0.33091,0.118179 0.64994,0.254224 0.9572,0.407855 0.31909,0.153634 0.58499,0.348706 0.79772,0.585063 0.2127,0.236359 0.31925,0.531777 0.31925,0.886313 0,0.449079 -0.17146,0.844846 -0.51418,1.187565 -0.34272,0.3309 -0.84502,0.496459 -1.50682,0.496459 -0.61454,0 -1.12863,-0.106531 -1.54226,-0.319252 -0.41362,-0.212722 -0.80349,-0.466823 -1.16984,-0.762269 l -0.46102,0.585062 c 0.37817,0.319082 0.83324,0.596793 1.36506,0.833151 0.54362,0.22454 1.12855,0.336973 1.75489,0.336973 0.61454,0 1.13455,-0.112433 1.55999,-0.336973 0.42544,-0.22454 0.75037,-0.514055 0.97491,-0.868593 0.22454,-0.366353 0.33698,-0.762119 0.33698,-1.187564 0,-0.555441 -0.14195,-0.992807 -0.42558,-1.311889 -0.27181,-0.319085 -0.62035,-0.573183 -1.0458,-0.76227 -0.42544,-0.189085 -0.8628,-0.36645 -1.31189,-0.5319 -0.3309,-0.129997 -0.64993,-0.259858 -0.9572,-0.389854 -0.29544,-0.141815 -0.53774,-0.319178 -0.72681,-0.531901 -0.17728,-0.212721 -0.26582,-0.478627 -0.26582,-0.79771 0,-0.389991 0.15347,-0.744438 0.46073,-1.063519 0.31909,-0.319085 0.80958,-0.478739 1.47138,-0.478739 0.42545,0 0.79788,0.07702 1.11697,0.23065 0.31908,0.141813 0.6263,0.318898 0.92175,0.531618 l 0.42529,-0.549339 c -0.30726,-0.259993 -0.67941,-0.472774 -1.11668,-0.638225 -0.42544,-0.165451 -0.86871,-0.248089 -1.32961,-0.248089 z m 12.21402,0 c -0.4609,0 -0.89826,0.06493 -1.31189,0.194927 -0.40181,0.118178 -0.76215,0.265748 -1.08123,0.443017 -0.31909,0.165449 -0.57909,0.319202 -0.77999,0.461017 l 0.35441,0.585062 c 0.29544,-0.212722 0.67969,-0.431405 1.15241,-0.655944 0.47271,-0.224541 0.99271,-0.336973 1.55997,-0.336973 0.56727,0 0.99253,0.136045 1.27617,0.407855 0.29545,0.271813 0.49641,0.614453 0.60278,1.028079 0.10636,0.401808 0.15358,0.821467 0.14176,1.258727 -1.89086,0.212723 -3.27941,0.56717 -4.16575,1.063521 -0.88635,0.484532 -1.32962,1.199612 -1.32962,2.145041 0,0.803615 0.2423,1.394454 0.72683,1.772627 0.48454,0.378172 1.06357,0.567341 1.73719,0.567341 0.55544,0 1.08725,-0.130141 1.59543,-0.390134 0.50816,-0.271811 0.98094,-0.579037 1.41821,-0.921756 h 0.0532 l 0.0709,1.098962 h 0.67366 v -5.441925 c 0,-0.61453 -0.0885,-1.164049 -0.2658,-1.648582 -0.16545,-0.496352 -0.44317,-0.892399 -0.83316,-1.187845 -0.38999,-0.295448 -0.92179,-0.443017 -1.59542,-0.443017 z m 13.96865,0 c -0.67361,0 -1.29988,0.177082 -1.87894,0.53162 -0.57909,0.342717 -1.04597,0.850918 -1.4005,1.524537 -0.35454,0.661801 -0.5319,1.471324 -0.5319,2.428572 0,0.933614 0.17736,1.737233 0.5319,2.410851 0.35453,0.661802 0.82141,1.170002 1.4005,1.524538 0.57906,0.342718 1.20533,0.514179 1.87894,0.514179 0.68544,0 1.31759,-0.171461 1.89668,-0.514179 0.57906,-0.354536 1.04596,-0.862736 1.40048,-1.524538 0.35455,-0.673618 0.53191,-1.477237 0.53191,-2.410851 0,-0.957248 -0.17736,-1.766771 -0.53191,-2.428572 -0.35452,-0.673619 -0.82142,-1.18182 -1.40048,-1.524537 -0.57909,-0.354538 -1.21124,-0.53162 -1.89668,-0.53162 z m 9.59024,0 c -0.50817,0 -0.96915,0.171181 -1.38277,0.513899 -0.40181,0.330901 -0.74445,0.756463 -1.02807,1.276448 h -0.0532 l -0.0709,-1.577699 h -0.67367 v 8.508721 h 0.77999 v -5.79662 c 0.33091,-0.803614 0.70307,-1.364939 1.11668,-1.684023 0.42546,-0.3309 0.8274,-0.496459 1.20557,-0.496459 0.16545,0 0.30122,0.01181 0.40757,0.03545 0.10636,0.01182 0.2306,0.04752 0.37241,0.106605 l 0.17722,-0.709107 c -0.14182,-0.07091 -0.27758,-0.118129 -0.40758,-0.141765 -0.13,-0.02364 -0.27784,-0.03545 -0.4433,-0.03545 z m -95.388249,0.212648 v 8.508721 h 0.77999 v -8.508721 z m 16.14913,0.425296 c 0.602712,0 1.116815,0.21278 1.542258,0.638224 0.43726,0.425443 0.655948,0.998573 0.655948,1.719465 0,0.472715 -0.100631,0.892373 -0.301537,1.258727 -0.200899,0.354538 -0.472711,0.632248 -0.81543,0.833152 -0.330893,0.200904 -0.691249,0.301251 -1.081239,0.301251 -0.38999,0 -0.756241,-0.100347 -1.098961,-0.301251 -0.3309,-0.200904 -0.602709,-0.478614 -0.81543,-0.833152 -0.200904,-0.366354 -0.301532,-0.786012 -0.301532,-1.258727 0,-0.732709 0.218682,-1.30584 0.655945,-1.719465 0.437261,-0.425444 0.957266,-0.638224 1.559978,-0.638224 z m 69.648879,0.05316 c 0.57908,0 1.09318,0.159655 1.54226,0.478738 0.44909,0.319082 0.80352,0.762353 1.06352,1.329611 0.27182,0.567257 0.40786,1.228931 0.40786,1.985274 0,0.744527 -0.13604,1.400577 -0.40786,1.967835 -0.26,0.555441 -0.61443,0.992525 -1.06352,1.311609 -0.44908,0.319082 -0.96318,0.478738 -1.54226,0.478738 -0.56726,0 -1.08136,-0.159656 -1.54226,-0.478738 -0.44907,-0.319084 -0.80352,-0.756168 -1.06352,-1.311609 -0.25999,-0.567258 -0.39013,-1.223308 -0.39013,-1.967835 0,-0.756343 0.13014,-1.418017 0.39013,-1.985274 0.26,-0.567258 0.61445,-1.010529 1.06352,-1.329611 0.4609,-0.319083 0.975,-0.478738 1.54226,-0.478738 z m -41.56954,3.297164 v 2.889589 c -0.531791,0.449079 -1.028197,0.791721 -1.489096,1.028079 -0.449067,0.236357 -0.915676,0.354694 -1.400211,0.354694 -0.484534,0 -0.910092,-0.130143 -1.27645,-0.390135 -0.354526,-0.259994 -0.5319,-0.697079 -0.5319,-1.311609 0,-0.449079 0.147851,-0.839225 0.443296,-1.170125 0.295453,-0.342718 0.785941,-0.626333 1.471379,-0.850872 0.685439,-0.22454 1.613025,-0.407806 2.782982,-0.549621 z m 29.51528,0 v 2.889589 c -0.5318,0.449079 -1.0282,0.791721 -1.48909,1.028079 -0.44908,0.236357 -0.91596,0.354694 -1.4005,0.354694 -0.48453,0 -0.9098,-0.130143 -1.27616,-0.390135 -0.35453,-0.259994 -0.5319,-0.697079 -0.5319,-1.311609 0,-0.449079 0.14785,-0.839225 0.44329,-1.170125 0.29546,-0.342718 0.78594,-0.626333 1.47138,-0.850872 0.68544,-0.22454 1.61301,-0.407806 2.78298,-0.549621 z m -59.101435,4.609054 c 0.22454,0.04727 0.43732,0.08269 0.638224,0.106323 0.200904,0.02364 0.342851,0.03545 0.425577,0.03545 h 1.82579 c 0.638155,0 1.122754,0.09472 1.453651,0.283811 0.34272,0.200905 0.513899,0.537643 0.513899,1.010358 0,0.354538 -0.129861,0.691275 -0.389851,1.010358 -0.259995,0.330901 -0.626528,0.602709 -1.099245,0.815431 -0.460894,0.212721 -1.010415,0.319253 -1.648581,0.319253 -0.898158,0 -1.595247,-0.165558 -2.091598,-0.496459 -0.496351,-0.3309 -0.744548,-0.762365 -0.744548,-1.294169 0,-0.307265 0.08854,-0.620393 0.26581,-0.939476 0.177268,-0.307266 0.460882,-0.590879 0.850872,-0.850872 z" /></g></svg>
