<?xml version="1.0" encoding="UTF-8" standalone="no"?>
<svg
   width="1024"
   height="1024"
   viewBox="0 0 1024 1024"
   fill="none"
   version="1.1"
   id="svg241"
   sodipodi:docname="ryrt_ok.svg"
   xml:space="preserve"
   inkscape:version="1.2.2 (732a01da63, 2022-12-09)"
   xmlns:inkscape="http://www.inkscape.org/namespaces/inkscape"
   xmlns:sodipodi="http://sodipodi.sourceforge.net/DTD/sodipodi-0.dtd"
   xmlns="http://www.w3.org/2000/svg"
   xmlns:svg="http://www.w3.org/2000/svg"><sodipodi:namedview
     id="namedview243"
     pagecolor="#ffffff"
     bordercolor="#000000"
     borderopacity="0.25"
     inkscape:showpageshadow="2"
     inkscape:pageopacity="0.0"
     inkscape:pagecheckerboard="0"
     inkscape:deskcolor="#d1d1d1"
     showgrid="false"
     inkscape:zoom="2.9436492"
     inkscape:cx="464.55944"
     inkscape:cy="245.10394"
     inkscape:window-width="3840"
     inkscape:window-height="2081"
     inkscape:window-x="1991"
     inkscape:window-y="-9"
     inkscape:window-maximized="1"
     inkscape:current-layer="svg241" /><defs
     id="defs239"><rect
       x="125.17836"
       y="520.20842"
       width="31.807617"
       height="18.468936"
       id="rect346" /><clipPath
       id="clip0"><rect
         width="1024"
         height="1024"
         fill="white"
         id="rect236" /></clipPath></defs><g
     clip-path="url(#clip0)"
     id="g234"
     transform="matrix(0.35270541,0,0,0.35270541,11.286573,68.810762)"><path
       d="m 431.977,307.891 c -23.321,-31 -63.633,-43.594 -102.922,-30.321 l -114.11,49.571 c -16.586,7.203 -30.437,19.039 -40.14,34.304 L 9.4844,621.75 c -22.1797,44.383 -4.13281,98.555 40.2578,120.766 24.3906,12.195 54.6248,12.398 80.4768,0.937 24.609,-10.875 42.594,-30.883 49.367,-54.906 L 426,349.906 c 13.242,-9.961 15.906,-28.773 5.977,-42.015 z"
       fill="#ffd54f"
       id="path212" /><path
       d="m 299.992,752.008 h -120 v 120 c 0,33.14 26.867,60 60,60 33.141,0 60,-26.86 60,-60 0,33.14 26.867,60 60,60 33.141,0 60,-26.86 60,-60 v -120 z"
       fill="#ffd54f"
       id="path214" /><path
       d="M 844,452 H 789.195 L 467.398,296.008 200.992,649.406 904,752.008 964,512.008 904,452 Z"
       fill="#ffc107"
       id="path216" /><path
       d="m 190.773,837.258 c -1.718,2.453 -4.281,5.062 -6.984,6.828 l -76.195,56.516 c -9.8362,7.765 -23.9924,8.109 -34.7971,0.539 C 61.9844,893.57 57.461,880.148 61.3985,868.25 l 27.0468,-90.93 c 0.7344,-3.148 2.3125,-6.437 4.0313,-8.898 l 83.5624,-14.734 z"
       fill="#ffc107"
       id="path218" /><path
       d="m 176.039,753.695 14.734,83.563 c -1.726,2.453 -4.281,5.062 -6.984,6.828 l -76.195,56.516 c -9.8362,7.765 -23.9925,8.109 -34.805,0.539 z"
       fill="#ffb300"
       id="path220" /><path
       d="m 655.375,173.735 -51.625,73.726 -83.563,14.735 -14.734,-83.563 51.617,-73.726 c 9.64,-13.766 28.023,-17.0004 41.781,-7.3675 l 49.156,34.4145 c 13.758,9.64 17,28.023 7.368,41.781 z"
       fill="#555555"
       id="path222" /><path
       d="M 655.375,173.735 603.75,247.461 520.187,262.196 623.429,114.75 648,131.953 c 13.765,9.641 17.007,28.024 7.375,41.782 z"
       fill="#333333"
       id="path224" /><path
       d="m 92.4921,768.438 412.9999,-589.829 98.305,68.829 -413,589.828 z"
       fill="#999999"
       id="path226" /><path
       d="M 141.648,802.852 554.641,213.024 603.789,247.438 190.797,837.266 Z"
       fill="#666666"
       id="path228" /><path
       d="m 209.992,632.008 c -49.703,0 -90,40.289 -90,90 0,49.703 40.297,90 90,90 h 232.899 l 33.179,16.578 c 56.781,28.39 120.383,43.422 183.93,43.422 63.547,0 131.148,-15.032 187.922,-43.422 L 934,785.539 V 632.008 Z"
       fill="#ffc107"
       id="path230" /><path
       d="m 947.413,814.564 64.457,-36.351 c 7.63,-4.301 12.13,-11.097 12.13,-18.321 V 474.812 C 1024,462.218 1010.57,452 993.999,452 h -90 v 342.158 c 0,16.955 23.469,27.987 43.414,20.406 z"
       fill="#666666"
       id="path232" /></g><g
     aria-label="Rytr"
     transform="matrix(24.966037,0,0,24.966037,-4594.3784,1104.7407)"
     id="text236"
     style="font-size:12px;font-family:Nunito;-inkscape-font-specification:'Nunito, @wght=600';font-variation-settings:'wght' 600;white-space:pre;inline-size:37.1483;fill:#301400"><path
       d="m 202.03964,-29.810867 q -0.3,0 -0.468,-0.168 -0.156,-0.168 -0.156,-0.468 v -7.272 q 0,-0.312 0.168,-0.468 0.168,-0.168 0.468,-0.168 h 2.868 q 1.368,0 2.112,0.648 0.744,0.648 0.744,1.836 0,0.768 -0.336,1.32 -0.336,0.552 -0.984,0.84 -0.636,0.288 -1.536,0.288 l 0.108,-0.168 h 0.312 q 0.48,0 0.828,0.24 0.36,0.24 0.648,0.768 l 1.032,1.92 q 0.12,0.216 0.108,0.42 0,0.192 -0.144,0.312 -0.132,0.12 -0.384,0.12 -0.264,0 -0.432,-0.108 -0.156,-0.12 -0.288,-0.348 l -1.26,-2.328 q -0.252,-0.468 -0.576,-0.624 -0.324,-0.168 -0.852,-0.168 h -1.356 v 2.94 q 0,0.3 -0.156,0.468 -0.156,0.168 -0.468,0.168 z m 0.624,-4.512 h 2.052 q 0.912,0 1.38,-0.384 0.468,-0.384 0.468,-1.14 0,-0.744 -0.468,-1.128 -0.468,-0.384 -1.38,-0.384 h -2.052 z"
       id="path4994" /><path
       d="m 210.77405,-27.650867 q -0.216,0 -0.36,-0.12 -0.132,-0.108 -0.156,-0.3 -0.012,-0.18 0.072,-0.396 l 0.816,-1.836 v 0.516 l -2.244,-5.22 q -0.084,-0.216 -0.06,-0.408 0.024,-0.192 0.18,-0.3 0.156,-0.12 0.42,-0.12 0.228,0 0.36,0.108 0.132,0.108 0.24,0.372 l 1.812,4.476 h -0.336 l 1.836,-4.476 q 0.108,-0.276 0.252,-0.372 0.144,-0.108 0.396,-0.108 0.216,0 0.336,0.12 0.132,0.108 0.156,0.3 0.036,0.18 -0.06,0.396 l -3,6.9 q -0.12,0.276 -0.276,0.372 -0.144,0.096 -0.384,0.096 z"
       id="path4996" /><path
       d="m 218.27535,-29.786867 q -0.72,0 -1.212,-0.252 -0.492,-0.252 -0.732,-0.744 -0.24,-0.492 -0.24,-1.2 v -2.832 h -0.72 q -0.24,0 -0.372,-0.12 -0.132,-0.132 -0.132,-0.348 0,-0.228 0.132,-0.348 0.132,-0.12 0.372,-0.12 h 0.72 v -1.236 q 0,-0.3 0.156,-0.456 0.168,-0.156 0.456,-0.156 0.288,0 0.444,0.156 0.156,0.156 0.156,0.456 v 1.236 h 1.404 q 0.24,0 0.372,0.12 0.132,0.12 0.132,0.348 0,0.216 -0.132,0.348 -0.132,0.12 -0.372,0.12 h -1.404 v 2.736 q 0,0.636 0.264,0.96 0.276,0.324 0.888,0.324 0.216,0 0.372,-0.036 0.168,-0.048 0.276,-0.06 0.132,0 0.216,0.096 0.084,0.084 0.084,0.336 0,0.18 -0.072,0.336 -0.06,0.156 -0.228,0.204 -0.144,0.048 -0.396,0.084 -0.24,0.048 -0.432,0.048 z"
       id="path4998" /><path
       d="m 220.77134,-29.810867 q -0.3,0 -0.456,-0.156 -0.156,-0.168 -0.156,-0.456 v -4.8 q 0,-0.3 0.156,-0.456 0.156,-0.156 0.432,-0.156 0.288,0 0.432,0.156 0.156,0.156 0.156,0.456 v 0.876 h -0.12 q 0.192,-0.72 0.708,-1.092 0.516,-0.372 1.32,-0.432 0.216,-0.012 0.336,0.108 0.132,0.12 0.144,0.372 0.024,0.252 -0.108,0.408 -0.132,0.144 -0.408,0.168 l -0.228,0.024 q -0.78,0.072 -1.188,0.492 -0.408,0.42 -0.408,1.152 v 2.724 q 0,0.288 -0.156,0.456 -0.144,0.156 -0.456,0.156 z"
       id="path5000" /></g></svg>
