<?xml version="1.0" encoding="UTF-8" standalone="no"?>
<svg
   width="130mm"
   height="30mm"
   viewBox="0 0 491.33859 113.38583"
   fill="none"
   version="1.1"
   id="svg8"
   sodipodi:docname="playground.svg"
   inkscape:version="1.2.2 (732a01da63, 2022-12-09)"
   inkscape:export-filename="playground.png"
   inkscape:export-xdpi="96"
   inkscape:export-ydpi="96"
   xmlns:inkscape="http://www.inkscape.org/namespaces/inkscape"
   xmlns:sodipodi="http://sodipodi.sourceforge.net/DTD/sodipodi-0.dtd"
   xmlns="http://www.w3.org/2000/svg"
   xmlns:svg="http://www.w3.org/2000/svg">
  <defs
     id="defs12" />
  <sodipodi:namedview
     id="namedview10"
     pagecolor="#ffffff"
     bordercolor="#000000"
     borderopacity="0.25"
     inkscape:showpageshadow="2"
     inkscape:pageopacity="0.0"
     inkscape:pagecheckerboard="0"
     inkscape:deskcolor="#d1d1d1"
     showgrid="false"
     inkscape:zoom="2.2278912"
     inkscape:cx="125.90382"
     inkscape:cy="78.325191"
     inkscape:window-width="3840"
     inkscape:window-height="2081"
     inkscape:window-x="1991"
     inkscape:window-y="-9"
     inkscape:window-maximized="1"
     inkscape:current-layer="svg8"
     inkscape:document-units="mm" />
  <g
     id="g290"
     transform="matrix(3.3190298,0,0,3.3190298,5.8351145,3.1419847)">
    <path
       id="circle2"
       style="fill:#231b3a;fill-opacity:1"
       d="M 16,0 A 16,16 0 0 0 0,16 16,16 0 0 0 16,32 16,16 0 0 0 32,16 16,16 0 0 0 16,0 Z m 0,2.8222656 c 1.039599,0 1.882812,0.8432136 1.882812,1.8828125 V 27.292969 c 10e-7,1.039599 -0.843213,1.882812 -1.882812,1.882812 -1.039599,0 -1.880859,-0.843213 -1.880859,-1.882812 V 4.7050781 c 0,-1.0395989 0.84126,-1.8828125 1.880859,-1.8828125 z M 12.234375,7.3730469 V 24.628906 C 8.9106983,23.176408 6.5898438,19.861049 6.5898438,16.001953 c 0,-3.859096 2.3208545,-7.1763976 5.6445312,-8.6289061 z m 7.529297,0 c 3.324397,1.4521685 5.648437,4.7692101 5.648437,8.6289061 0,3.859696 -2.32404,7.176808 -5.648437,8.628906 z" />
    <path
       d="m 41.0566,18.5566 h 4.2969 c 0.9896,0 1.8555,-0.1985 2.5977,-0.5957 0.7422,-0.3971 1.3183,-0.957 1.7285,-1.6797 0.4167,-0.7226 0.625,-1.569 0.625,-2.539 v -0.0195 c 0,-0.9636 -0.2083,-1.8067 -0.625,-2.5293 C 49.2695,10.4707 48.6934,9.91081 47.9512,9.51367 47.209,9.11003 46.3431,8.9082 45.3535,8.9082 h -4.2969 v 2.334 h 3.5743 c 0.8463,0 1.5039,0.2148 1.9726,0.6445 0.4753,0.4297 0.7129,1.0449 0.7129,1.8457 v 0.0196 c 0,0.8007 -0.2376,1.4192 -0.7129,1.8554 -0.4687,0.4297 -1.1263,0.6446 -1.9726,0.6446 H 41.0566 Z M 39.582,23 h 2.9492 V 8.9082 H 39.582 Z m 12.6176,0 h 2.8516 V 8.32227 h -2.8516 z m 8.1254,0.166 c 0.4688,0 0.9017,-0.0618 1.2988,-0.1855 0.3972,-0.1302 0.7487,-0.3158 1.0547,-0.5567 0.306,-0.2474 0.5501,-0.5403 0.7324,-0.8789 h 0.1465 V 23 h 2.8223 v -7.3047 c 0,-0.7487 -0.1758,-1.3932 -0.5274,-1.9336 -0.3515,-0.5403 -0.8593,-0.9538 -1.5234,-1.2402 -0.6641,-0.2865 -1.4681,-0.4297 -2.4121,-0.4297 -0.8984,0 -1.6862,0.1335 -2.3633,0.4004 -0.6771,0.2604 -1.2142,0.6282 -1.6113,1.1035 -0.3906,0.4753 -0.6218,1.0319 -0.6934,1.6699 l -0.0097,0.0977 h 2.6269 l 0.0195,-0.0488 c 0.1042,-0.3256 0.3158,-0.5795 0.6348,-0.7618 0.319,-0.1888 0.7389,-0.2832 1.2598,-0.2832 0.5794,0 1.0189,0.1302 1.3183,0.3907 0.306,0.2539 0.459,0.6152 0.459,1.0839 v 3.3692 c 0,0.3711 -0.1009,0.7064 -0.3027,1.0058 -0.1953,0.2995 -0.4655,0.5371 -0.8106,0.7129 -0.3385,0.1693 -0.7259,0.2539 -1.1621,0.2539 -0.4948,0 -0.8984,-0.1139 -1.2109,-0.3418 -0.306,-0.2343 -0.459,-0.5501 -0.459,-0.9472 v -0.0196 c 0,-0.3906 0.1465,-0.6966 0.4395,-0.9179 0.2994,-0.2279 0.7454,-0.3614 1.3379,-0.4004 l 3.5937,-0.2344 v -1.7383 l -4.0137,0.2344 c -1.3281,0.0846 -2.3535,0.4036 -3.0761,0.957 -0.7162,0.5469 -1.0743,1.3021 -1.0743,2.2657 v 0.0097 c 0,0.6446 0.1498,1.211 0.4493,1.6992 0.2994,0.4818 0.7129,0.8562 1.2402,1.1231 0.5273,0.2604 1.1328,0.3906 1.8164,0.3906 z m 9.3656,3.5449 c 0.8594,0 1.5983,-0.1171 2.2168,-0.3515 0.6185,-0.2279 1.1459,-0.6087 1.5821,-1.1426 0.4362,-0.5339 0.8072,-1.2598 1.1132,-2.1777 l 3.6426,-10.7227 h -3.0078 l -2.5195,9.1602 0.5664,-1.0059 h -0.7715 l 0.5859,1.0059 -2.5195,-9.1602 H 67.4445 L 71.2043,23 71.0969,23.4004 c -0.1042,0.3971 -0.2995,0.6901 -0.586,0.8789 -0.2864,0.1888 -0.6738,0.2832 -1.1621,0.2832 -0.1497,0 -0.2962,-0.0065 -0.4394,-0.0195 -0.1367,-0.0065 -0.2539,-0.0131 -0.3516,-0.0196 v 2.1289 c 0.1693,0.0196 0.3516,0.0326 0.5469,0.0391 0.1953,0.013 0.3906,0.0195 0.5859,0.0195 z m 14.2582,0.0293 c 1.0808,0 2.0117,-0.166 2.793,-0.498 0.7878,-0.332 1.3965,-0.804 1.8262,-1.416 0.4297,-0.6055 0.6445,-1.3216 0.6445,-2.1485 V 12.3164 h -2.8516 v 1.7676 h -0.1171 c -0.1889,-0.4102 -0.4395,-0.7585 -0.752,-1.0449 -0.3125,-0.293 -0.6771,-0.5176 -1.0938,-0.6739 -0.4101,-0.1562 -0.8626,-0.2343 -1.3574,-0.2343 -0.9049,0 -1.6862,0.2213 -2.3437,0.664 -0.6511,0.4362 -1.1556,1.0515 -1.5137,1.8457 -0.3516,0.7878 -0.5273,1.7188 -0.5273,2.793 v 0.0098 c 0,1.0351 0.1757,1.9401 0.5273,2.7148 0.3516,0.7747 0.8496,1.377 1.4941,1.8066 0.6511,0.4297 1.4258,0.6446 2.3243,0.6446 0.4948,0 0.9505,-0.0684 1.3672,-0.2051 0.4166,-0.1367 0.7812,-0.3353 1.0937,-0.5957 0.3125,-0.2669 0.5664,-0.5859 0.7617,-0.957 h 0.1465 v 1.9043 c 0,0.6184 -0.2083,1.097 -0.625,1.4355 -0.4102,0.3451 -0.9928,0.5176 -1.748,0.5176 -0.625,0 -1.1231,-0.0977 -1.4942,-0.293 -0.3646,-0.1888 -0.5892,-0.4329 -0.6738,-0.7324 l -0.0195,-0.0488 h -2.8125 v 0.0586 c 0.0846,0.5989 0.3287,1.1263 0.7324,1.582 0.4101,0.4622 0.97,0.8203 1.6797,1.0742 0.7096,0.2604 1.556,0.3906 2.539,0.3906 z m 0.0196,-6.2988 c -0.5013,0 -0.931,-0.1237 -1.2891,-0.3711 -0.3581,-0.2474 -0.6315,-0.5957 -0.8203,-1.0449 -0.1888,-0.4492 -0.2832,-0.9733 -0.2832,-1.5723 v -0.0097 c 0,-0.599 0.0944,-1.1231 0.2832,-1.5723 0.1888,-0.4492 0.4622,-0.7975 0.8203,-1.0449 0.3581,-0.2474 0.7878,-0.3711 1.2891,-0.3711 0.5013,0 0.931,0.1237 1.289,0.3711 0.3646,0.2474 0.6446,0.5957 0.8399,1.0449 0.1953,0.4492 0.2929,0.9733 0.2929,1.5723 v 0.0195 c 0,0.5924 -0.0976,1.1133 -0.2929,1.5625 -0.1953,0.4492 -0.4753,0.7975 -0.8399,1.0449 -0.358,0.2474 -0.7877,0.3711 -1.289,0.3711 z M 91.4297,23 h 2.8515 v -5.9766 c 0,-0.5078 0.101,-0.9407 0.3028,-1.2988 0.2083,-0.3646 0.5013,-0.6445 0.8789,-0.8398 0.3841,-0.1953 0.8366,-0.293 1.3574,-0.293 0.2214,0 0.4362,0.0163 0.6445,0.0488 0.2149,0.0261 0.4167,0.0651 0.6055,0.1172 v -2.4902 c -0.1367,-0.0391 -0.293,-0.0716 -0.4687,-0.0977 -0.1758,-0.026 -0.3549,-0.039 -0.5371,-0.039 -0.6771,0 -1.2435,0.166 -1.6993,0.498 -0.4557,0.332 -0.7682,0.7975 -0.9375,1.3965 h -0.1465 v -1.709 h -2.8515 z m 12.4613,0.2246 c 1.094,0 2.035,-0.2213 2.822,-0.6641 0.788,-0.4427 1.394,-1.0807 1.817,-1.914 0.423,-0.8333 0.634,-1.8294 0.634,-2.9883 v -0.0195 c 0,-1.1524 -0.214,-2.142 -0.644,-2.9688 -0.423,-0.8268 -1.029,-1.4616 -1.816,-1.9043 -0.788,-0.4492 -1.726,-0.6738 -2.813,-0.6738 -1.081,0 -2.015,0.2246 -2.803,0.6738 -0.787,0.4427 -1.3962,1.0808 -1.8259,1.9141 -0.4297,0.8268 -0.6445,1.8131 -0.6445,2.959 v 0.0195 c 0,1.1589 0.2116,2.155 0.6347,2.9883 0.4232,0.8333 1.0287,1.4713 1.8167,1.914 0.794,0.4428 1.735,0.6641 2.822,0.6641 z m 0,-2.2363 c -0.495,0 -0.918,-0.1302 -1.27,-0.3906 -0.351,-0.2605 -0.621,-0.6381 -0.81,-1.1329 -0.182,-0.5013 -0.274,-1.1002 -0.274,-1.7968 v -0.0196 c 0,-0.6966 0.095,-1.2923 0.284,-1.7871 0.189,-0.4948 0.459,-0.8724 0.81,-1.1328 0.352,-0.2669 0.772,-0.4004 1.26,-0.4004 0.495,0 0.918,0.1335 1.27,0.4004 0.351,0.2604 0.621,0.638 0.81,1.1328 0.189,0.4948 0.283,1.0905 0.283,1.7871 v 0.0196 c 0,0.6966 -0.094,1.2923 -0.283,1.7871 -0.189,0.4948 -0.459,0.8756 -0.81,1.1426 -0.346,0.2604 -0.769,0.3906 -1.27,0.3906 z m 10.547,2.2363 c 0.775,0 1.429,-0.1693 1.963,-0.5078 0.534,-0.3385 0.925,-0.8008 1.172,-1.3867 h 0.147 V 23 h 2.851 V 12.3164 h -2.851 v 6.1719 c 0,0.4687 -0.085,0.8821 -0.254,1.2402 -0.17,0.3581 -0.414,0.638 -0.733,0.8399 -0.319,0.1953 -0.706,0.2929 -1.162,0.2929 -0.67,0 -1.159,-0.192 -1.465,-0.5761 -0.306,-0.3907 -0.459,-0.9571 -0.459,-1.6993 v -6.2695 h -2.851 v 6.9043 c 0,0.8464 0.136,1.569 0.41,2.168 0.28,0.5989 0.69,1.0547 1.23,1.3672 0.541,0.3125 1.208,0.4687 2.002,0.4687 z M 122.788,23 h 2.852 v -6.1719 c 0,-0.4817 0.084,-0.8984 0.254,-1.25 0.169,-0.358 0.41,-0.6347 0.722,-0.8301 0.319,-0.1953 0.697,-0.2929 1.133,-0.2929 0.664,0 1.156,0.1953 1.475,0.5859 0.325,0.3841 0.488,0.9473 0.488,1.6895 V 23 h 2.852 v -6.9043 c 0,-1.276 -0.316,-2.2624 -0.948,-2.959 -0.625,-0.6966 -1.53,-1.0449 -2.714,-1.0449 -0.775,0 -1.426,0.1693 -1.954,0.5078 -0.52,0.3386 -0.908,0.8008 -1.162,1.3867 h -0.146 v -1.6699 h -2.852 z m 15.753,0.1855 c 0.755,0 1.409,-0.166 1.963,-0.498 0.559,-0.332 0.976,-0.791 1.25,-1.377 H 141.9 V 23 h 2.852 V 8.32227 H 141.9 v 5.73243 h -0.146 c -0.274,-0.5925 -0.694,-1.0612 -1.26,-1.4063 -0.567,-0.345 -1.221,-0.5175 -1.963,-0.5175 -0.899,0 -1.673,0.2213 -2.324,0.664 -0.645,0.4427 -1.143,1.0775 -1.494,1.9043 -0.346,0.8203 -0.518,1.8034 -0.518,2.9492 v 0.0196 c 0,1.1393 0.176,2.1224 0.527,2.9492 0.352,0.8203 0.853,1.4551 1.504,1.9043 0.651,0.4427 1.423,0.664 2.315,0.664 z m 0.966,-2.3632 c -0.494,0 -0.924,-0.127 -1.289,-0.3809 -0.358,-0.2539 -0.634,-0.6152 -0.83,-1.084 -0.195,-0.4752 -0.293,-1.0384 -0.293,-1.6894 v -0.0196 c 0,-0.651 0.098,-1.2109 0.293,-1.6796 0.196,-0.4753 0.472,-0.8399 0.83,-1.0938 0.365,-0.2539 0.795,-0.3809 1.289,-0.3809 0.489,0 0.912,0.127 1.27,0.3809 0.365,0.2539 0.648,0.6185 0.85,1.0938 0.201,0.4687 0.302,1.0286 0.302,1.6796 v 0.0196 c 0,0.651 -0.101,1.2142 -0.302,1.6894 -0.196,0.4688 -0.476,0.8301 -0.84,1.084 -0.358,0.2539 -0.785,0.3809 -1.28,0.3809 z"
       fill="#F3F2F3"
       id="path6"
       style="fill:#231b3a;fill-opacity:1" />
  </g>
</svg>
