<?xml version="1.0" encoding="UTF-8" standalone="no"?>
<!-- Generator: Adobe Illustrator 25.0.1, SVG Export Plug-In . SVG Version: 6.00 Build 0)  -->

<svg
   version="1.1"
   id="Layer_1"
   x="0px"
   y="0px"
   viewBox="0 0 420.00001 84.999998"
   xml:space="preserve"
   sodipodi:docname="proxymaW.svg"
   width="420"
   height="85"
   inkscape:version="1.2.2 (732a01da63, 2022-12-09)"
   xmlns:inkscape="http://www.inkscape.org/namespaces/inkscape"
   xmlns:sodipodi="http://sodipodi.sourceforge.net/DTD/sodipodi-0.dtd"
   xmlns:xlink="http://www.w3.org/1999/xlink"
   xmlns="http://www.w3.org/2000/svg"
   xmlns:svg="http://www.w3.org/2000/svg"><defs
   id="defs568" /><sodipodi:namedview
   id="namedview566"
   pagecolor="#ffffff"
   bordercolor="#000000"
   borderopacity="0.25"
   inkscape:showpageshadow="2"
   inkscape:pageopacity="0.0"
   inkscape:pagecheckerboard="0"
   inkscape:deskcolor="#d1d1d1"
   showgrid="false"
   inkscape:zoom="4.4304549"
   inkscape:cx="249.97433"
   inkscape:cy="179.32696"
   inkscape:window-width="3840"
   inkscape:window-height="2081"
   inkscape:window-x="1991"
   inkscape:window-y="-9"
   inkscape:window-maximized="1"
   inkscape:current-layer="Layer_1" />
<style
   type="text/css"
   id="style545">
	.st0{fill:#F2F2F2;}
</style>
<g
   id="g563"
   transform="translate(-86.92992,-378.03362)">
	<g
   id="g559">
		<path
   class="st0"
   d="m 195.6,392.4 h -11.3 c -4.3,0 -7.5,0.9 -9.8,2.8 -2.3,1.9 -3.4,4.7 -3.4,8.4 v 23.6 h -13.2 v -23.6 c 0,-5.3 2,-9.3 6.1,-12.2 4.1,-2.9 9.9,-4.4 17.5,-4.4 h 14.1 z"
   id="path547" />
		<path
   class="st0"
   d="m 226,385.4 c 4.2,0 8.1,0.5 11.6,1.4 3.5,1 6.6,2.3 9.1,4.2 2.5,1.8 4.5,4.1 5.9,6.8 1.4,2.7 2.1,5.8 2.1,9.2 0,3.5 -0.7,6.6 -2.1,9.3 -1.4,2.7 -3.4,4.9 -5.9,6.8 -2.5,1.8 -5.5,3.2 -9.1,4.2 -3.6,1 -7.4,1.4 -11.6,1.4 -4.3,0 -8.2,-0.5 -11.7,-1.4 -3.5,-1 -6.5,-2.3 -9,-4.2 -2.5,-1.8 -4.5,-4.1 -5.9,-6.8 -1.4,-2.7 -2.1,-5.8 -2.1,-9.3 0,-3.4 0.7,-6.5 2.1,-9.2 1.4,-2.7 3.4,-5 5.9,-6.8 2.5,-1.8 5.5,-3.2 9,-4.2 3.5,-0.9 7.4,-1.4 11.7,-1.4 z m 0,38.3 c 2,0 3.9,-0.3 5.7,-0.9 1.8,-0.6 3.3,-1.6 4.6,-2.9 1.3,-1.3 2.4,-3 3.2,-5.1 0.8,-2.1 1.2,-4.7 1.2,-7.6 0,-3 -0.4,-5.5 -1.2,-7.6 -0.8,-2.1 -1.8,-3.8 -3.2,-5.1 -1.3,-1.3 -2.9,-2.3 -4.6,-2.9 -1.8,-0.6 -3.6,-0.9 -5.7,-0.9 -2,0 -3.9,0.3 -5.7,0.9 -1.8,0.6 -3.3,1.6 -4.6,2.9 -1.3,1.3 -2.4,3 -3.2,5.1 -0.8,2.1 -1.2,4.7 -1.2,7.6 0,3 0.4,5.5 1.2,7.6 0.8,2.1 1.8,3.8 3.2,5.1 1.3,1.3 2.9,2.3 4.6,2.9 1.8,0.6 3.7,0.9 5.7,0.9 z"
   id="path549" />
		<path
   class="st0"
   d="m 288.5,406.8 20.7,20.3 H 294.1 L 281,414.3 267.8,427.2 H 252.7 L 273.4,406.9 253.2,387 h 15.1 L 281,399.5 293.7,387 h 15.1 z"
   id="path551" />
		<path
   class="st0"
   d="m 352.8,425.6 h -12.3 c -9,0 -15.6,-1.3 -19.9,-4 -4.3,-2.7 -6.5,-6.6 -6.5,-11.9 V 387 h 13.2 v 22.8 c 0,3.7 1.1,6.4 3.4,8 2.3,1.6 5.5,2.4 9.8,2.4 h 12.3 V 387 H 366 v 39.4 c 0,1.5 0.6,9.3 -1.2,14.1 -1.2,3.1 -1.9,3.8 -2.3,4.6 -1.1,2 -3.4,3.6 -5.6,5 -2.2,1.4 -5,2.5 -8.4,3.3 -3.4,0.8 -7.3,1.2 -11.7,1.2 -1.5,0 -3.1,-0.1 -4.9,-0.3 -1.7,-0.2 -3.5,-0.5 -5.2,-0.8 -1.8,-0.4 -3.5,-0.9 -5.1,-1.5 -1.7,-0.6 -3.2,-1.3 -4.6,-2 l 3.8,-4.6 c 2.1,1.2 4.5,2.1 7.2,2.8 2.6,0.7 5.3,1 7.9,1 4.7,0 8.3,-0.9 10.8,-2.6 1.1,-0.8 3.2,-2.2 4.9,-6.1 2.1,-4.7 1.3,-12.1 1.3,-14.1 v -0.8 z"
   id="path553" />
		<path
   class="st0"
   d="m 373.4,387 h 49 c 9,0 15.6,1.3 19.9,4 4.3,2.7 6.5,6.6 6.5,11.9 v 24.3 h -13.2 v -24.3 c 0,-3.7 -1.1,-6.4 -3.4,-8 -2.3,-1.6 -5.5,-2.4 -9.8,-2.4 h -4.7 v 34.8 h -13.2 v -34.8 h -17.9 v 34.8 h -13.2 z"
   id="path555" />
		<path
   class="st0"
   d="m 491.8,401.7 c 0,-3.7 -1.2,-6.4 -3.5,-8.2 -2.4,-1.8 -5.4,-2.6 -9.2,-2.6 -2.8,0 -5.6,0.3 -8.3,1 -2.7,0.7 -5.1,1.6 -7.3,2.8 l -3.3,-4.6 c 1.4,-0.8 2.9,-1.4 4.6,-2 1.7,-0.6 3.4,-1 5.1,-1.4 1.8,-0.4 3.5,-0.7 5.2,-0.9 1.7,-0.2 3.3,-0.3 4.9,-0.3 4,0 7.6,0.4 10.6,1.2 3.1,0.8 5.7,1.9 7.8,3.3 2.1,1.4 3.8,3.2 4.9,5.1 1.1,2 1.7,4.2 1.7,6.6 v 25.5 h -26.4 c -8.5,0 -14.8,-1.1 -18.9,-3.2 -4.1,-2.1 -6.1,-5.3 -6.1,-9.6 0,-4.3 2,-7.5 6.1,-9.6 4.1,-2.1 10.3,-3.2 18.9,-3.2 h 13.2 z m -24,12.7 c 0,4.9 3.6,7.3 10.8,7.3 h 13.2 V 407 h -13.2 c -7.2,0.1 -10.8,2.5 -10.8,7.4 z"
   id="path557" />
	</g>
	
		<image
   style="overflow:visible"
   width="1474"
   height="1785"
   xlink:href="ProxymaRGB300Final.png"
   transform="matrix(0.04663699,0,0,0.04663699,89.5665,378.9605)"
   id="image561">
	</image>
</g>
</svg>
