<?xml version="1.0" encoding="UTF-8" standalone="no"?>
<!-- Generator: Adobe Illustrator 25.0.1, SVG Export Plug-In . SVG Version: 6.00 Build 0)  -->

<svg
   version="1.1"
   id="Layer_1"
   x="0px"
   y="0px"
   viewBox="0 0 415.00001 74.999998"
   xml:space="preserve"
   sodipodi:docname="proxyma_plain_b.svg"
   width="415"
   height="75"
   inkscape:version="1.2.2 (732a01da63, 2022-12-09)"
   xmlns:inkscape="http://www.inkscape.org/namespaces/inkscape"
   xmlns:sodipodi="http://sodipodi.sourceforge.net/DTD/sodipodi-0.dtd"
   xmlns="http://www.w3.org/2000/svg"
   xmlns:svg="http://www.w3.org/2000/svg"><defs
   id="defs25" /><sodipodi:namedview
   id="namedview23"
   pagecolor="#ffffff"
   bordercolor="#000000"
   borderopacity="0.25"
   inkscape:showpageshadow="2"
   inkscape:pageopacity="0.0"
   inkscape:pagecheckerboard="0"
   inkscape:deskcolor="#d1d1d1"
   showgrid="false"
   inkscape:zoom="1.1854139"
   inkscape:cx="243.37491"
   inkscape:cy="421.37181"
   inkscape:window-width="3840"
   inkscape:window-height="2081"
   inkscape:window-x="1991"
   inkscape:window-y="-9"
   inkscape:window-maximized="1"
   inkscape:current-layer="Layer_1" />
<style
   type="text/css"
   id="style2">
	.st0{fill:#090C13;}
</style>
<g
   id="g20"
   transform="translate(-89.75,-383.15)">
	<g
   id="g16">
		<path
   class="st0"
   d="m 192,392.7 h -11.3 c -4.3,0 -7.5,0.9 -9.8,2.8 -2.3,1.9 -3.4,4.7 -3.4,8.4 v 23.6 h -13.2 v -23.6 c 0,-5.3 2,-9.3 6.1,-12.2 4.1,-2.9 9.9,-4.4 17.5,-4.4 H 192 Z"
   id="path4" />
		<path
   class="st0"
   d="m 222.4,385.8 c 4.2,0 8.1,0.5 11.6,1.4 3.5,1 6.6,2.3 9.1,4.2 2.5,1.8 4.5,4.1 5.9,6.8 1.4,2.7 2.1,5.8 2.1,9.2 0,3.5 -0.7,6.6 -2.1,9.3 -1.4,2.7 -3.4,4.9 -5.9,6.8 -2.5,1.8 -5.5,3.2 -9.1,4.2 -3.5,1 -7.4,1.4 -11.6,1.4 -4.3,0 -8.2,-0.5 -11.7,-1.4 -3.5,-1 -6.5,-2.3 -9,-4.2 -2.5,-1.8 -4.5,-4.1 -5.9,-6.8 -1.4,-2.7 -2.1,-5.8 -2.1,-9.3 0,-3.4 0.7,-6.5 2.1,-9.2 1.4,-2.7 3.4,-5 5.9,-6.8 2.5,-1.8 5.5,-3.2 9,-4.2 3.6,-1 7.5,-1.4 11.7,-1.4 z m 0,38.2 c 2,0 3.9,-0.3 5.7,-0.9 1.8,-0.6 3.3,-1.6 4.6,-2.9 1.3,-1.3 2.4,-3 3.2,-5.1 0.8,-2.1 1.2,-4.7 1.2,-7.6 0,-3 -0.4,-5.5 -1.2,-7.6 -0.8,-2.1 -1.8,-3.8 -3.2,-5.1 -1.3,-1.3 -2.9,-2.3 -4.6,-2.9 -1.8,-0.6 -3.6,-0.9 -5.7,-0.9 -2,0 -3.9,0.3 -5.7,0.9 -1.8,0.6 -3.3,1.6 -4.6,2.9 -1.3,1.3 -2.4,3 -3.2,5.1 -0.8,2.1 -1.2,4.7 -1.2,7.6 0,3 0.4,5.5 1.2,7.6 0.8,2.1 1.8,3.8 3.2,5.1 1.3,1.3 2.9,2.3 4.6,2.9 1.9,0.6 3.7,0.9 5.7,0.9 z"
   id="path6" />
		<path
   class="st0"
   d="m 285,407.2 20.7,20.3 h -15.1 l -13.2,-12.9 -13.2,12.9 h -15.1 l 20.7,-20.3 -20.3,-19.9 h 15.1 l 12.7,12.5 12.7,-12.5 h 15.1 z"
   id="path8" />
		<path
   class="st0"
   d="M 349.2,425.9 H 337 c -9,0 -15.6,-1.3 -19.9,-4 -4.3,-2.7 -6.5,-6.6 -6.5,-11.9 v -22.8 h 13.2 V 410 c 0,3.7 1.1,6.4 3.4,8 2.3,1.6 5.5,2.4 9.8,2.4 h 12.3 v -33.2 h 13.2 v 39.4 c 0,1.5 0.6,9.3 -1.2,14.1 -1.2,3.1 -1.9,3.8 -2.3,4.6 -1.1,2 -3.4,3.6 -5.6,5 -2.2,1.4 -5,2.5 -8.4,3.3 -3.4,0.8 -7.3,1.2 -11.7,1.2 -1.5,0 -3.1,-0.1 -4.9,-0.3 -1.7,-0.2 -3.5,-0.5 -5.2,-0.8 -1.8,-0.4 -3.5,-0.9 -5.1,-1.5 -1.7,-0.6 -3.2,-1.3 -4.6,-2 l 3.8,-4.6 c 2.1,1.2 4.5,2.1 7.2,2.8 2.6,0.7 5.3,1 7.9,1 4.7,0 8.3,-0.9 10.8,-2.6 1.1,-0.8 3.2,-2.2 4.9,-6.1 2.1,-4.7 1.3,-12.1 1.3,-14.1 v -0.7 z"
   id="path10" />
		<path
   class="st0"
   d="m 369.8,387.3 h 49 c 9,0 15.6,1.3 19.9,4 4.3,2.7 6.5,6.6 6.5,11.9 v 24.3 H 432 v -24.3 c 0,-3.7 -1.1,-6.4 -3.4,-8 -2.3,-1.6 -5.5,-2.4 -9.8,-2.4 h -4.7 v 34.8 H 400.9 V 392.8 H 383 v 34.8 h -13.2 z"
   id="path12" />
		<path
   class="st0"
   d="m 488.3,402 c 0,-3.7 -1.2,-6.4 -3.5,-8.2 -2.4,-1.8 -5.4,-2.6 -9.2,-2.6 -2.8,0 -5.6,0.3 -8.3,1 -2.7,0.7 -5.1,1.6 -7.3,2.8 l -3.3,-4.6 c 1.4,-0.8 2.9,-1.4 4.6,-2 1.7,-0.6 3.4,-1 5.1,-1.4 1.8,-0.4 3.5,-0.7 5.2,-0.9 1.7,-0.2 3.3,-0.3 4.9,-0.3 4,0 7.6,0.4 10.6,1.2 3.1,0.8 5.7,1.9 7.8,3.3 2.1,1.4 3.8,3.2 4.9,5.1 1.1,2 1.7,4.2 1.7,6.6 v 25.5 h -26.4 c -8.5,0 -14.8,-1.1 -18.9,-3.2 -4.1,-2.1 -6.1,-5.3 -6.1,-9.6 0,-4.3 2,-7.5 6.1,-9.6 4.1,-2.1 10.3,-3.2 18.9,-3.2 h 13.2 z m -24.1,12.7 c 0,4.9 3.6,7.3 10.8,7.3 h 13.2 V 407.3 H 475 c -7.2,0.1 -10.8,2.5 -10.8,7.4 z"
   id="path14" />
	</g>
	<path
   class="st0"
   d="m 148.1,407.3 c 0,11.4 -9.2,20.6 -20.6,20.6 -1,0 -3.7,0 -6.9,0 0,0 0,0 0,0 0,0 -4.1,0 -6.9,0 -3.8,0 -6.9,3.1 -6.9,6.9 0,2.1 0,6.9 0,6.9 v 13.8 C 99.2,455.5 93,449.3 93,441.7 v -13.8 c 0,-3.8 1.5,-7.2 4,-9.7 2.5,-2.5 5.9,-4 9.7,-4 h 20.7 c 0.1,0 0.3,0 0.4,0 0,0 0,0 0.1,0 0,0 0,0 0,0 3.6,-0.2 6.4,-3.2 6.4,-6.9 0,-3.8 -3,-6.9 -6.8,-6.9 0,0 0,0 0,0 h -20.7 c -7.5,0 -13.6,-6 -13.7,-13.4 0,-0.1 0,-0.2 0,-0.4 h 34.4 c 0.2,0 0.4,0 0.7,0 0,0 0.2,0 0.2,0 1.9,0.1 3.8,0.4 5.5,1 3,1 5.6,2.6 7.8,4.7 4,3.8 6.4,9.1 6.4,15 z"
   id="path18" />
</g>
</svg>
