<?xml version="1.0" encoding="utf-8"?>
<!-- Generator: Adobe Illustrator 25.0.1, SVG Export Plug-In . SVG Version: 6.00 Build 0)  -->
<svg version="1.1"
	 id="svg5" sodipodi:docname="NovelAI.svg" xmlns:inkscape="http://www.inkscape.org/namespaces/inkscape" xmlns:sodipodi="http://sodipodi.sourceforge.net/DTD/sodipodi-0.dtd" xmlns:svg="http://www.w3.org/2000/svg"
	 xmlns="http://www.w3.org/2000/svg" xmlns:xlink="http://www.w3.org/1999/xlink" x="0px" y="0px" viewBox="0 0 595.3 841.9"
	 style="enable-background:new 0 0 595.3 841.9;" xml:space="preserve">
<style type="text/css">
	.st0{enable-background:new    ;}
	.st1{fill:#212335;}
</style>
<sodipodi:namedview  bordercolor="#000000" borderopacity="0.25" id="namedview7" inkscape:current-layer="layer2" inkscape:cx="318.30969" inkscape:cy="464.52969" inkscape:deskcolor="#d1d1d1" inkscape:document-units="mm" inkscape:pagecheckerboard="0" inkscape:pageopacity="0.0" inkscape:showpageshadow="2" inkscape:window-height="2081" inkscape:window-maximized="1" inkscape:window-width="3840" inkscape:window-x="1991" inkscape:window-y="-9" inkscape:zoom="0.88907127" pagecolor="#ffffff" showgrid="false">
	</sodipodi:namedview>
<g>
	<g class="st0">
		<path class="st1" d="M218.4,126.9c-0.9,0.5-1.9,1.1-2.9,1.5c-0.7,0.3-1.4,0.6-2.1,0.9l-0.2,36.7l-8.7,0.8L185,136.6l0.9,7.6v17.9
			l5.4,0.8l-0.1,3.2h-16.9l-0.4-2c0.9-0.6,1.9-1.1,2.9-1.6c0.8-0.4,1.5-0.7,2.3-1v-32.7l-4.3-0.7l0.1-3.2h13.7l19,30.2l-0.9-7.9V129
			l-6-0.9l0.1-3.2H218L218.4,126.9z"/>
		<path class="st1" d="M233.8,167.3c-2.7,0-5.1-0.6-7.4-1.9c-2.3-1.3-4.2-3.2-5.6-5.6c-1.4-2.5-2.1-5.4-2.1-8.8
			c0-3.4,0.7-6.3,2.1-8.7c1.4-2.4,3.2-4.2,5.5-5.4c2.3-1.2,4.7-1.8,7.4-1.8c2.6,0,5.1,0.6,7.3,1.9c2.2,1.3,4,3.1,5.4,5.5
			c1.4,2.4,2,5.4,2,8.9c0,3.5-0.7,6.4-2,8.8c-1.3,2.4-3.1,4.2-5.3,5.4C238.8,166.7,236.4,167.3,233.8,167.3z M234.2,162.2
			c0.7,0,1.4-0.1,2.1-0.3c0.8-0.6,1.4-1.4,1.8-2.4c0.4-1,0.7-2.2,0.9-3.5c0.2-1.3,0.2-2.6,0.2-3.9c0-2.1-0.2-4.1-0.6-5.8
			c-0.4-1.8-1.1-3.2-1.9-4.3c-0.9-1.1-2-1.6-3.5-1.6c-0.6,0-1.2,0.1-1.8,0.3c-0.6,0.2-1,0.4-1.4,0.7c-0.7,1-1.3,2.4-1.6,4.1
			c-0.3,1.7-0.5,3.5-0.5,5.5c0,2,0.2,3.9,0.6,5.6c0.4,1.7,1.1,3.1,2.1,4.1C231.5,161.7,232.7,162.2,234.2,162.2z"/>
		<path class="st1" d="M255.1,136.3l0.2,0.4l3.5-0.4H255.1z M255.1,136.3l0.2,0.4l3.5-0.4H255.1z"/>
		<path class="st1" d="M281.6,139.2c-0.7,0.4-1.5,0.8-2.3,1.2c-0.3,0.1-0.6,0.3-0.9,0.4c-1.3,3.4-2.6,6.8-3.9,10.3
			c-1.9,5.1-3.8,10-5.8,14.8c-0.8,0.3-1.7,0.4-2.9,0.6c-1.1,0.1-2.2,0.2-3.4,0.1c-1.1,0-2.1-0.1-2.9-0.3l-8.8-25l-3.8-1.7l0.1-3.3
			h8.1l0.2,0.4l3.5-0.4h4.2l0.2,2.8c-0.7,0.4-1.5,0.8-2.3,1.2c-0.2,0.1-0.5,0.2-0.7,0.3l3.8,12.3l0.9,5.4h1.1
			c0.6-2.3,1.1-4.8,1.7-7.3c0.5-2.5,1-5.1,1.5-7.6c0.2-0.8,0.3-1.7,0.5-2.5l-3.3-1.5l0.1-3.3h15.1L281.6,139.2z"/>
		<path class="st1" d="M302.6,160.2c-1.3,0.4-2.5,0.6-3.8,0.6c-1.8,0-3.4-0.4-4.8-1.2c-1.4-0.8-2.6-2-3.4-3.5c-0.7-1.4-1.1-3-1.2-5
			l15.7,0.2l3.6-3.6c0-2.1-0.4-4-1-5.6c-0.7-1.6-1.7-2.9-2.9-3.9c-1.2-1-2.6-1.8-4.1-2.3c-1.5-0.5-3-0.8-4.6-0.8
			c-2.1,0-4.1,0.4-5.9,1.2c-1.8,0.8-3.5,2-4.9,3.5c-1.4,1.5-2.5,3.3-3.3,5.3c-0.8,2-1.2,4.2-1.2,6.5c0,2.4,0.4,4.6,1.3,6.6
			c0.9,2,2.1,3.6,3.7,5c1.6,1.4,3.4,2.4,5.6,3.1c2.1,0.7,4.5,0.9,7,0.6l9.7-5.1l-1.3-3.3C305.2,159.2,303.8,159.8,302.6,160.2z
			 M289.8,146.3c0.3-1.4,0.8-2.7,1.4-3.8c0.7-1.2,1.5-2.1,2.6-2.7c1.4,0,2.7,0.4,3.8,1.3c1.1,0.9,1.9,2,2.4,3.4
			c0.2,0.5,0.3,1.1,0.4,1.6l-10.7,0.6C289.7,146.6,289.8,146.4,289.8,146.3z"/>
		<path class="st1" d="M328.8,163l-0.2,3.1h-17.7l-0.2-2.1c1-0.6,2.2-1.2,3.6-1.7c0.4-0.1,0.8-0.3,1.1-0.4v-36.1l-4.6-0.5l-0.4-3.1
			c1.6-0.6,3.4-1.1,5.3-1.5c1.9-0.4,3.8-0.6,5.6-0.7l3.1,2.8v38.3c0.3,0.1,0.6,0.2,0.8,0.3C326.6,161.9,327.8,162.4,328.8,163z"/>
		<path class="st1" d="M388.9,162v-32.6c0.8-0.3,1.6-0.7,2.3-1c1-0.5,2-1,2.9-1.5l-0.4-2h-18.9l-0.1,3.2l4.7,0.7v32.7
			c-0.8,0.3-1.6,0.7-2.3,1c-0.8,0.4-1.5,0.7-2.2,1.1l0-0.7l-4.4-0.7l-15.5-38.8l-8.1,2.3l0.7,2l-13.6,33.9c-0.8,0.3-1.5,0.6-2.2,1
			c-1,0.5-2,1-2.9,1.6l0.4,2h16.8l0.1-3.2l-5.7-0.8l2.7-7.3h14.6l2.5,6.7c-0.8,0.3-1.6,0.7-2.4,1c-1,0.5-2,1-2.9,1.6l0.4,2h39
			l0.1-3.2L388.9,162z M345.2,149.9l5.5-14.7l5.5,14.7H345.2z"/>
	</g>
	<path class="st1" d="M118.5,121.6v23.7c-1.9,0.9-3.2,2.8-3.2,5c0,1,0.2,1.9,0.7,2.7l-9.1,9.1l-7.8-8.8l9-13.8l7.5-18H118.5z"/>
	<path class="st1" d="M142.8,153.4l-7.8,8.8l-9.1-9.1c0.5-0.8,0.7-1.7,0.7-2.7c0-2.2-1.3-4.1-3.2-5v-23.7h2.8l7.5,18L142.8,153.4z"
		/>
	<path class="st1" d="M133,165.1l-2.1,7.2h-19.7l-2.2-7.2l9.7-9.7c0.7,0.3,1.5,0.5,2.3,0.5c0.8,0,1.6-0.2,2.3-0.5l2.5,2.5l-3.9,3.9
		c-0.3-0.1-0.6-0.1-0.9-0.1c-2.1,0-3.8,1.7-3.8,3.8c0,2.1,1.7,3.8,3.8,3.8c2.1,0,3.8-1.7,3.8-3.8c0-0.5-0.1-1-0.3-1.4l3.7-3.7
		L133,165.1z"/>
</g>
</svg>
